<svg width="217" height="64" viewBox="0 0 217 64" fill="none" xmlns="http://www.w3.org/2000/svg">
<path d="M208.843 64H8.16704C6.00101 64 3.92369 63.1396 2.39207 61.6079C0.860454 60.0763 0 57.999 0 55.833L0 8.29662C0 6.13058 0.860454 4.05327 2.39207 2.52165C3.92369 0.990031 6.00101 0.129578 8.16704 0.129578H208.843C211.007 0.13222 213.082 0.99384 214.611 2.52517C216.141 4.0565 217 6.13231 217 8.29662V55.833C217 57.9973 216.141 60.0731 214.611 61.6044C213.082 63.1358 211.007 63.9974 208.843 64ZM8.16704 1.74504C6.42945 1.74504 4.76303 2.43529 3.53437 3.66395C2.30571 4.89261 1.61546 6.55903 1.61546 8.29662V55.833C1.61546 57.5715 2.30539 59.2389 3.53377 60.4692C4.76214 61.6994 6.42854 62.3919 8.16704 62.3945H208.843C210.581 62.3919 212.248 61.6994 213.476 60.4692C214.705 59.2389 215.394 57.5715 215.394 55.833V8.29662C215.394 6.55903 214.704 4.89261 213.476 3.66395C212.247 2.43529 210.58 1.74504 208.843 1.74504H8.16704Z" fill="#1E1E2A"/>
<path d="M72.2456 18.2886L71.3381 21.2802H69.3438L72.7043 10.7897H75.1474L78.5778 21.2702H76.5236L75.5762 18.2786L72.2456 18.2886ZM75.2372 16.8427L74.4095 14.2599C74.2101 13.6217 74.0405 12.9037 73.881 12.2655C73.7314 12.8638 73.5719 13.6018 73.3824 14.2599L72.5747 16.8427H75.2372Z" fill="#1E1E2A"/>
<path d="M81.4431 13.6815L82.6697 17.5306C82.889 18.1988 83.0486 18.807 83.1882 19.4253C83.3278 18.807 83.4973 18.2187 83.6968 17.5306L84.9134 13.6815H86.9077L84.0159 21.2701H82.191L79.3789 13.6815H81.4431Z" fill="#1E1E2A"/>
<path d="M94.6043 19.4453C94.5947 20.0562 94.6381 20.6667 94.734 21.2701H93.0088L92.8692 20.4225C92.5979 20.7511 92.2541 21.0121 91.8647 21.1852C91.4754 21.3582 91.0512 21.4385 90.6255 21.4197C90.318 21.4374 90.0101 21.3919 89.7209 21.286C89.4316 21.1801 89.1672 21.016 88.9438 20.8039C88.7205 20.5917 88.543 20.3361 88.4223 20.0526C88.3016 19.7692 88.2404 19.4641 88.2422 19.1561C88.2422 17.2614 89.9474 16.2841 92.7496 16.2941V16.1745C92.7496 15.6759 92.5401 14.8482 91.2039 14.8482C90.5015 14.8555 89.8135 15.0481 89.2095 15.4066L88.7508 14.1801C89.5913 13.7228 90.5365 13.4925 91.4931 13.5119C93.9163 13.5119 94.6143 15.0576 94.6143 16.7229L94.6043 19.4453ZM92.7396 17.5606C91.3834 17.5606 90.097 17.8298 90.097 18.9766C90.0816 19.1236 90.099 19.2721 90.148 19.4116C90.197 19.551 90.2764 19.6778 90.3804 19.7827C90.4844 19.8877 90.6105 19.9683 90.7495 20.0186C90.8884 20.0688 91.0368 20.0876 91.184 20.0735C91.515 20.0907 91.843 20.0038 92.122 19.8249C92.4011 19.6461 92.617 19.3842 92.7396 19.0763C92.7592 18.9374 92.7592 18.7964 92.7396 18.6575V17.5606Z" fill="#1E1E2A"/>
<path d="M98.2628 12.5945C98.0704 12.5771 97.8871 12.5042 97.7354 12.3846C97.5836 12.265 97.4698 12.1039 97.4079 11.9209C97.346 11.7378 97.3386 11.5407 97.3867 11.3536C97.4347 11.1664 97.5361 10.9972 97.6784 10.8666C97.8208 10.7359 97.9981 10.6495 98.1887 10.6177C98.3793 10.586 98.575 10.6103 98.7521 10.6877C98.9291 10.7651 99.0799 10.8923 99.186 11.0538C99.2921 11.2153 99.349 11.4041 99.3498 11.5973C99.3503 11.7362 99.3219 11.8736 99.2663 12.0009C99.2106 12.1281 99.129 12.2423 99.0267 12.3362C98.9244 12.4301 98.8036 12.5015 98.6721 12.546C98.5405 12.5905 98.4011 12.607 98.2628 12.5945ZM97.2656 21.2701V13.6815H99.1803V21.2701H97.2656Z" fill="#1E1E2A"/>
<path d="M101.98 10.2013H103.895V21.2702H101.98V10.2013Z" fill="#1E1E2A"/>
<path d="M112.554 19.4454C112.545 20.0562 112.589 20.6668 112.684 21.2702H110.959L110.819 20.4226H110.769C110.5 20.7504 110.158 21.011 109.77 21.1841C109.382 21.3571 108.96 21.4378 108.536 21.4198C108.228 21.4375 107.92 21.392 107.631 21.2861C107.342 21.1802 107.077 21.0161 106.854 20.8039C106.631 20.5918 106.453 20.3361 106.332 20.0527C106.212 19.7693 106.151 19.4642 106.152 19.1562C106.152 17.2615 107.848 16.2842 110.65 16.2942V16.1745C110.65 15.6759 110.45 14.8483 109.104 14.8483C108.402 14.8556 107.714 15.0482 107.11 15.4067L106.701 14.1802C107.542 13.7242 108.487 13.494 109.443 13.512C111.876 13.512 112.574 15.0577 112.574 16.723L112.554 19.4454ZM110.69 17.5606C109.343 17.5606 108.047 17.8299 108.047 18.9767C108.032 19.1227 108.049 19.2704 108.098 19.409C108.146 19.5476 108.224 19.6739 108.327 19.7787C108.43 19.8834 108.555 19.9642 108.693 20.0152C108.83 20.0662 108.978 20.0861 109.124 20.0736C109.457 20.093 109.787 20.007 110.068 19.828C110.349 19.649 110.567 19.386 110.69 19.0764C110.709 18.9375 110.709 18.7965 110.69 18.6576V17.5606Z" fill="#1E1E2A"/>
<path d="M115.254 10.2013H117.169V14.7286C117.44 14.324 117.813 13.9983 118.251 13.7846C118.689 13.571 119.176 13.4769 119.662 13.512C121.516 13.512 122.833 15.0576 122.823 17.3612C122.823 20.0835 121.088 21.4397 119.382 21.4397C118.9 21.4642 118.421 21.3551 117.997 21.1247C117.573 20.8942 117.221 20.5512 116.979 20.1334L116.889 21.2702H115.254C115.254 20.7516 115.314 19.914 115.314 19.1461L115.254 10.2013ZM117.169 18.1789C117.153 18.3281 117.153 18.4784 117.169 18.6276C117.26 19.0082 117.477 19.3469 117.785 19.5893C118.092 19.8316 118.472 19.9636 118.864 19.9639C120.06 19.9639 120.798 18.9667 120.798 17.4808C120.798 16.1346 120.16 15.0477 118.884 15.0477C118.483 15.0582 118.098 15.2023 117.789 15.4571C117.48 15.7119 117.265 16.0627 117.178 16.4537C117.141 16.6173 117.121 16.7845 117.119 16.9523L117.169 18.1789Z" fill="#1E1E2A"/>
<path d="M125.047 10.2013H126.961V21.2702H125.047V10.2013Z" fill="#1E1E2A"/>
<path d="M131.083 18.0094C131.09 18.2988 131.158 18.5834 131.283 18.8447C131.407 19.1061 131.585 19.3384 131.805 19.5264C132.025 19.7145 132.283 19.8542 132.56 19.9364C132.838 20.0187 133.129 20.0416 133.416 20.0038C134.132 20.0134 134.844 19.8987 135.52 19.6647L135.8 20.971C134.959 21.3047 134.061 21.4674 133.157 21.4497C132.638 21.499 132.115 21.4345 131.624 21.2607C131.133 21.0868 130.685 20.8078 130.313 20.4432C129.941 20.0786 129.653 19.637 129.469 19.1495C129.285 18.6619 129.21 18.1401 129.248 17.6205C129.248 15.5264 130.525 13.5419 132.958 13.5419C135.391 13.5419 136.219 15.5363 136.219 17.2316C136.221 17.502 136.201 17.7722 136.159 18.0393L131.083 18.0094ZM134.414 16.6731C134.446 16.4462 134.43 16.215 134.367 15.9947C134.304 15.7744 134.194 15.5699 134.047 15.3948C133.899 15.2196 133.716 15.0777 133.509 14.9783C133.302 14.879 133.077 14.8245 132.848 14.8183C132.374 14.8484 131.929 15.0562 131.602 15.4C131.275 15.7439 131.09 16.1985 131.083 16.6731H134.414Z" fill="#1E1E2A"/>
<path d="M145.671 21.4397C145.158 21.459 144.646 21.3702 144.169 21.1791C143.692 20.9879 143.26 20.6988 142.902 20.3303C142.544 19.9618 142.267 19.5222 142.09 19.0399C141.912 18.5576 141.838 18.0435 141.872 17.5307C141.836 17.0036 141.912 16.4748 142.096 15.9793C142.279 15.4838 142.565 15.0328 142.935 14.6559C143.306 14.279 143.752 13.9849 144.244 13.7929C144.736 13.6009 145.263 13.5153 145.791 13.5419C146.301 13.5199 146.811 13.6055 147.286 13.7932C147.761 13.981 148.191 14.2666 148.548 14.6315C148.906 14.9965 149.182 15.4326 149.36 15.9114C149.538 16.3903 149.613 16.9013 149.58 17.411C149.614 17.9343 149.538 18.4588 149.356 18.9507C149.175 19.4426 148.892 19.891 148.527 20.2669C148.161 20.6428 147.721 20.9379 147.234 21.133C146.747 21.3281 146.225 21.419 145.701 21.3998L145.671 21.4397ZM145.731 20.0536C146.818 20.0536 147.586 18.9966 147.586 17.4509C147.586 16.2742 147.057 14.8981 145.741 14.8981C144.425 14.8981 143.846 16.2244 143.846 17.4808C143.846 18.9467 144.574 20.0536 145.711 20.0536H145.731Z" fill="#1E1E2A"/>
<path d="M151.814 15.9451C151.814 15.0676 151.814 14.3396 151.754 13.6815H153.419L153.509 14.8183H153.569C153.825 14.4091 154.183 14.0735 154.608 13.8444C155.032 13.6154 155.509 13.5008 155.992 13.512C157.318 13.512 158.684 14.3696 158.684 16.7628V21.2702H156.76V16.9822C156.76 15.8953 156.361 15.0676 155.314 15.0676C154.979 15.0782 154.655 15.1922 154.387 15.3939C154.12 15.5957 153.921 15.8753 153.818 16.1944C153.754 16.3906 153.723 16.5963 153.728 16.8027V21.2702H151.814V15.9451Z" fill="#1E1E2A"/>
<path d="M167.531 11.737V13.6815H169.356V15.0876H167.531V18.4182C167.531 19.3556 167.78 19.8243 168.528 19.8243C168.78 19.8347 169.032 19.8079 169.276 19.7445V21.1904C168.828 21.3346 168.36 21.402 167.89 21.3899C167.588 21.4058 167.285 21.3591 167.002 21.2527C166.719 21.1463 166.461 20.9825 166.244 20.7716C165.775 20.1645 165.558 19.4006 165.636 18.6376V15.0876H164.539V13.6815H165.616V12.2655L167.531 11.737Z" fill="#1E1E2A"/>
<path d="M171.445 10.2013H173.36V14.7086C173.612 14.343 173.956 14.0505 174.357 13.861C174.758 13.633 175.212 13.5127 175.673 13.512C176.97 13.512 178.326 14.3696 178.326 16.8027V21.2702H176.401V17.0022C176.401 15.9152 175.993 15.0676 174.935 15.0676C174.605 15.0703 174.284 15.1754 174.016 15.3683C173.748 15.5611 173.547 15.8324 173.44 16.1446C173.382 16.3318 173.355 16.5271 173.36 16.723V21.2702H171.445V10.2013Z" fill="#1E1E2A"/>
<path d="M182.388 18.0094C182.395 18.2997 182.463 18.5853 182.588 18.8474C182.713 19.1096 182.892 19.3424 183.113 19.5306C183.335 19.7188 183.593 19.8583 183.872 19.9398C184.15 20.0213 184.443 20.0431 184.731 20.0038C185.444 20.0135 186.152 19.8987 186.825 19.6647L187.104 20.971C186.264 21.3047 185.366 21.4674 184.462 21.4497C183.943 21.499 183.42 21.4345 182.929 21.2607C182.437 21.0868 181.99 20.8078 181.618 20.4432C181.245 20.0786 180.957 19.637 180.773 19.1495C180.589 18.6619 180.514 18.1401 180.553 17.6205C180.553 15.5264 181.829 13.5419 184.262 13.5419C186.696 13.5419 187.533 15.5363 187.533 17.2316C187.534 17.5023 187.51 17.7726 187.463 18.0393L182.388 18.0094ZM185.718 16.6731C185.751 16.4462 185.735 16.215 185.672 15.9947C185.608 15.7744 185.499 15.5699 185.351 15.3948C185.203 15.2196 185.02 15.0777 184.814 14.9783C184.607 14.879 184.382 14.8245 184.153 14.8183C183.679 14.8484 183.234 15.0562 182.907 15.4C182.58 15.7439 182.394 16.1985 182.388 16.6731H185.718Z" fill="#1E1E2A"/>
<path d="M48.4341 31.4416C48.4513 29.8689 48.8651 28.3261 49.6374 26.9559C50.4096 25.5858 51.5152 24.4327 52.8517 23.6037C51.9979 22.386 50.872 21.3843 49.5633 20.678C48.2546 19.9717 46.7993 19.5804 45.3129 19.5351C42.1418 19.196 39.0704 21.4298 37.4549 21.4298C35.8395 21.4298 33.3166 19.565 30.6441 19.6248C28.9117 19.6798 27.223 20.1826 25.7428 21.0844C24.2626 21.9862 23.0412 23.2561 22.1978 24.7704C18.5481 31.0926 21.2704 40.3765 24.7706 45.4921C26.5257 47.9951 28.5699 50.7872 31.2424 50.6875C33.9149 50.5878 34.9021 48.9923 38.0233 48.9923C41.1446 48.9923 42.0819 50.6576 44.8043 50.5978C47.5266 50.5379 49.3814 48.0749 51.0767 45.552C52.3375 43.7736 53.3038 41.8039 53.9386 39.7184C52.303 39.0326 50.9072 37.8776 49.9276 36.3992C48.9479 34.9208 48.4282 33.1852 48.4341 31.4117" fill="#1E1E2A"/>
<path d="M43.2711 16.1745C44.8116 14.3394 45.5675 11.9714 45.3751 9.58307C43.0361 9.83041 40.8755 10.9481 39.3222 12.7143C38.562 13.5807 37.9805 14.5888 37.6108 15.6806C37.2412 16.7723 37.0908 17.9263 37.1682 19.0764C38.3378 19.0926 39.4956 18.8414 40.5532 18.3419C41.6109 17.8424 42.5405 17.108 43.2711 16.1945" fill="#1E1E2A"/>
<path d="M86.268 50.2686H82.6183L80.6239 43.9962H73.6435L71.7987 50.2686H68.2188L75.1094 28.8987H79.3574L86.268 50.2686ZM80.0256 41.3537L78.2206 35.7793C78.0212 35.2109 77.6622 33.8647 77.1337 31.7906H77.0739C76.8644 32.698 76.5254 34.0442 76.0767 35.7793L74.3017 41.3537H80.0256Z" fill="#1E1E2A"/>
<path d="M103.969 42.3709C104.093 44.6418 103.332 46.8724 101.845 48.5934C101.244 49.2417 100.511 49.7548 99.6963 50.0986C98.8814 50.4424 98.0028 50.6092 97.1186 50.5878C96.262 50.6608 95.4017 50.4988 94.6304 50.1193C93.859 49.7398 93.2057 49.157 92.7409 48.4339H92.6811V56.551H89.2507V39.9278C89.2507 38.2824 89.2507 36.5971 89.1211 34.862H92.1127L92.3121 37.3051H92.3719C92.8906 36.5102 93.5877 35.8475 94.4078 35.3697C95.2279 34.8919 96.1483 34.6123 97.0956 34.5533C98.0429 34.4942 98.9908 34.6572 99.864 35.0294C100.737 35.4015 101.511 35.9725 102.125 36.6969C103.397 38.3062 104.045 40.3214 103.949 42.3709H103.969ZM100.459 42.5005C100.52 41.1904 100.172 39.8939 99.462 38.791C99.1312 38.3063 98.6839 37.9125 98.1611 37.6459C97.6384 37.3793 97.057 37.2484 96.4704 37.2653C95.6308 37.2636 94.8179 37.5605 94.1769 38.1029C93.4926 38.6673 93.0213 39.4482 92.8406 40.3167C92.7479 40.6415 92.6943 40.9763 92.6811 41.3139V43.8866C92.6427 44.9259 92.999 45.9412 93.6783 46.7287C94.0131 47.1065 94.427 47.406 94.8906 47.6059C95.3542 47.8058 95.8561 47.9012 96.3607 47.8854C96.9446 47.9055 97.5242 47.7792 98.0468 47.518C98.5693 47.2567 99.0181 46.8688 99.3523 46.3896C100.12 45.2277 100.497 43.8515 100.429 42.4607" fill="#1E1E2A"/>
<path d="M121.659 42.3709C121.784 44.6438 121.019 46.876 119.525 48.5934C118.926 49.2425 118.195 49.7562 117.382 50.1001C116.568 50.4441 115.691 50.6103 114.808 50.5878C113.948 50.6577 113.086 50.4912 112.314 50.1063C111.543 49.7213 110.891 49.1327 110.43 48.4039H110.37V56.5211H106.94V39.9278C106.94 38.2824 106.94 36.5971 106.82 34.862H109.812L110.011 37.3051H110.071C110.59 36.5102 111.287 35.8475 112.107 35.3697C112.927 34.8919 113.848 34.6123 114.795 34.5533C115.742 34.4942 116.69 34.6572 117.563 35.0294C118.436 35.4015 119.21 35.9725 119.824 36.6969C121.1 38.3048 121.752 40.3201 121.659 42.3709ZM118.168 42.5005C118.229 41.1904 117.881 39.8939 117.171 38.791C116.882 38.3842 116.511 38.0416 116.083 37.7845C115.655 37.5273 115.179 37.3613 114.684 37.2967C114.189 37.2322 113.685 37.2704 113.206 37.4091C112.726 37.5478 112.28 37.784 111.896 38.1029C111.208 38.6658 110.733 39.4469 110.55 40.3167C110.457 40.6415 110.404 40.9763 110.39 41.3139V43.8866C110.352 44.9259 110.708 45.9412 111.387 46.7287C111.722 47.107 112.136 47.4069 112.599 47.6068C113.063 47.8068 113.565 47.9019 114.07 47.8854C114.654 47.9055 115.233 47.7792 115.756 47.518C116.278 47.2567 116.727 46.8688 117.062 46.3896C117.829 45.2277 118.206 43.8515 118.138 42.4606" fill="#1E1E2A"/>
<path d="M141.523 44.2756C141.551 45.1107 141.393 45.9416 141.062 46.7088C140.731 47.476 140.235 48.1604 139.608 48.7131C137.973 50.0499 135.893 50.7195 133.784 50.5878C131.851 50.6802 129.931 50.2202 128.25 49.2615L129.038 46.3996C130.538 47.3148 132.266 47.7884 134.024 47.7658C135.091 47.8261 136.146 47.52 137.015 46.8982C137.365 46.6186 137.645 46.2611 137.832 45.8542C138.019 45.4473 138.108 45.0023 138.092 44.5548C138.104 44.1492 138.031 43.7456 137.878 43.3697C137.725 42.9938 137.496 42.6537 137.205 42.3709C136.336 41.614 135.316 41.0498 134.213 40.7156C130.497 39.3195 128.639 37.2752 128.639 34.5828C128.621 33.7588 128.791 32.9415 129.137 32.1932C129.482 31.4449 129.994 30.7854 130.633 30.265C132.11 29.0826 133.969 28.483 135.859 28.5797C137.534 28.5134 139.201 28.8556 140.715 29.5769L139.857 32.3591C138.6 31.6887 137.194 31.3457 135.769 31.3619C134.751 31.297 133.745 31.6134 132.947 32.2494C132.674 32.4918 132.456 32.7899 132.308 33.1236C132.16 33.4573 132.086 33.8189 132.089 34.1839C132.084 34.5861 132.171 34.9841 132.344 35.3472C132.517 35.7103 132.771 36.0288 133.086 36.2781C134.028 36.9904 135.079 37.546 136.198 37.9234C137.734 38.4654 139.123 39.3563 140.256 40.5261C141.138 41.5572 141.604 42.8797 141.563 44.2357" fill="#1E1E2A"/>
<path d="M152.845 37.4247H149.075V44.9137C149.075 46.8183 149.733 47.7657 151.07 47.7657C151.583 47.7782 152.096 47.7245 152.595 47.6061L152.685 50.2088C151.826 50.4879 150.925 50.6161 150.022 50.5877C149.436 50.6221 148.849 50.5295 148.302 50.3161C147.754 50.1026 147.26 49.7735 146.851 49.3512C145.975 48.1513 145.567 46.6725 145.705 45.1929V37.4247H143.461V34.852H145.705V32.0399L149.075 31.0427V34.8719H152.845V37.4247Z" fill="#1E1E2A"/>
<path d="M169.875 42.4407C169.964 44.5664 169.252 46.6481 167.88 48.2743C167.166 49.0517 166.292 49.6641 165.317 50.0689C164.342 50.4736 163.291 50.6609 162.236 50.6177C161.223 50.6642 160.213 50.4863 159.277 50.0967C158.341 49.7071 157.502 49.1154 156.821 48.364C155.463 46.7932 154.75 44.7656 154.827 42.69C154.741 40.5401 155.487 38.4398 156.911 36.8265C157.62 36.0605 158.489 35.4592 159.455 35.0647C160.422 34.6702 161.463 34.4921 162.505 34.5429C163.524 34.4974 164.54 34.6755 165.483 35.0649C166.425 35.4542 167.271 36.0453 167.96 36.7966C169.321 38.3541 170.035 40.3736 169.954 42.4407H169.875ZM166.404 42.5504C166.44 41.2694 166.123 40.0032 165.487 38.8907C165.195 38.3093 164.741 37.8243 164.181 37.4936C163.62 37.1629 162.976 37.0006 162.326 37.0259C161.682 37.0086 161.046 37.1723 160.491 37.4985C159.936 37.8246 159.483 38.3001 159.185 38.8707C158.545 40.0035 158.228 41.2899 158.267 42.5903C158.231 43.8713 158.549 45.1374 159.185 46.25C159.483 46.8146 159.931 47.2857 160.48 47.6113C161.029 47.9369 161.658 48.1042 162.296 48.0948C162.932 48.0985 163.556 47.9251 164.098 47.594C164.641 47.2628 165.08 46.7871 165.367 46.2201C166.04 45.1082 166.385 43.8295 166.365 42.5304" fill="#1E1E2A"/>
<path d="M181.001 37.8735C180.646 37.8035 180.286 37.77 179.924 37.7738C179.382 37.7511 178.842 37.8642 178.355 38.1028C177.867 38.3413 177.447 38.6978 177.132 39.14C176.538 40.0399 176.241 41.1038 176.284 42.1814V50.2687H172.854V39.7084C172.854 37.9333 172.814 36.3179 172.734 34.862H175.726L175.846 37.8536H175.945C176.268 36.8954 176.86 36.0506 177.651 35.4204C178.367 34.8825 179.238 34.592 180.134 34.5927C180.417 34.5907 180.701 34.6107 180.981 34.6526L181.001 37.8735Z" fill="#1E1E2A"/>
<path d="M196.319 41.8324C196.327 42.3535 196.287 42.8743 196.199 43.388H185.928C185.906 44.043 186.027 44.6949 186.284 45.2978C186.541 45.9008 186.927 46.4402 187.414 46.8782C188.364 47.6411 189.557 48.0374 190.775 47.9951C192.194 48.0147 193.605 47.7677 194.933 47.2671L195.471 49.6504C193.833 50.3337 192.071 50.6731 190.296 50.6476C189.263 50.7039 188.23 50.545 187.262 50.1811C186.294 49.8172 185.412 49.2561 184.672 48.5336C183.971 47.7749 183.43 46.8838 183.079 45.9129C182.728 44.9419 182.574 43.9106 182.627 42.8795C182.54 40.763 183.216 38.6857 184.532 37.0259C185.173 36.2214 185.995 35.5792 186.93 35.1513C187.866 34.7234 188.889 34.5218 189.917 34.5628C190.899 34.5063 191.878 34.7031 192.762 35.1345C193.646 35.5658 194.404 36.2172 194.963 37.0259C195.905 38.4662 196.378 40.1624 196.319 41.8823V41.8324ZM193.058 40.9948C193.103 40.0703 192.87 39.1536 192.39 38.3622C192.108 37.9005 191.705 37.524 191.226 37.2729C190.747 37.0218 190.208 36.9054 189.668 36.9362C189.133 36.9268 188.604 37.0493 188.127 37.2928C187.651 37.5362 187.241 37.8932 186.935 38.3322C186.356 39.1064 186.01 40.0303 185.938 40.9948H193.058Z" fill="#1E1E2A"/>
</svg>
