<svg width="217" height="64" viewBox="0 0 217 64" fill="none" xmlns="http://www.w3.org/2000/svg">
<path d="M208.843 63.8704H8.16704C6.00101 63.8704 3.92369 63.01 2.39207 61.4784C0.860454 59.9468 0 57.8694 0 55.7034L0 8.16704C0 6.00101 0.860454 3.92369 2.39207 2.39207C3.92369 0.860453 6.00101 0 8.16704 0H208.843C211.007 0.00264262 213.082 0.864262 214.611 2.39559C216.141 3.92692 217 6.00273 217 8.16704V55.7034C217 57.8677 216.141 59.9435 214.611 61.4748C213.082 63.0062 211.007 63.8678 208.843 63.8704ZM8.16704 1.61546C6.42945 1.61546 4.76303 2.30571 3.53437 3.53437C2.30571 4.76303 1.61546 6.42945 1.61546 8.16704V55.7034C1.61546 57.4419 2.30539 59.1094 3.53377 60.3396C4.76214 61.5698 6.42854 62.2623 8.16704 62.2649H208.843C210.581 62.2623 212.248 61.5698 213.476 60.3396C214.705 59.1094 215.394 57.4419 215.394 55.7034V8.16704C215.394 6.42945 214.704 4.76303 213.476 3.53437C212.247 2.30571 210.58 1.61546 208.843 1.61546H8.16704Z" fill="white"/>
<path d="M72.2456 18.1591L71.3381 21.1507H69.3438L72.7043 10.6602H75.1474L78.5778 21.1407H76.5236L75.5762 18.1491L72.2456 18.1591ZM75.2372 16.7131L74.4095 14.1304C74.2101 13.4922 74.0405 12.7742 73.881 12.136C73.7314 12.7343 73.5719 13.4723 73.3824 14.1304L72.5747 16.7131H75.2372Z" fill="white"/>
<path d="M81.4431 13.5518L82.6697 17.4009C82.889 18.0691 83.0486 18.6773 83.1882 19.2956C83.3278 18.6773 83.4973 18.089 83.6968 17.4009L84.9134 13.5518H86.9077L84.0159 21.1404H82.191L79.3789 13.5518H81.4431Z" fill="white"/>
<path d="M94.6043 19.3153C94.5947 19.9262 94.6381 20.5368 94.734 21.1402H93.0088L92.8692 20.2926C92.5979 20.6211 92.2541 20.8822 91.8647 21.0552C91.4754 21.2283 91.0512 21.3086 90.6255 21.2898C90.318 21.3075 90.0101 21.262 89.7209 21.1561C89.4316 21.0501 89.1672 20.886 88.9438 20.6739C88.7205 20.4618 88.543 20.2061 88.4223 19.9227C88.3016 19.6393 88.2404 19.3342 88.2422 19.0261C88.2422 17.1315 89.9474 16.1542 92.7496 16.1642V16.0445C92.7496 15.5459 92.5401 14.7182 91.2039 14.7182C90.5015 14.7255 89.8135 14.9182 89.2095 15.2767L88.7508 14.0501C89.5913 13.5929 90.5365 13.3626 91.4931 13.382C93.9163 13.382 94.6143 14.9276 94.6143 16.593L94.6043 19.3153ZM92.7396 17.4306C91.3834 17.4306 90.097 17.6999 90.097 18.8466C90.0816 18.9936 90.099 19.1422 90.148 19.2816C90.197 19.421 90.2764 19.5478 90.3804 19.6528C90.4844 19.7578 90.6105 19.8383 90.7495 19.8886C90.8884 19.9389 91.0368 19.9577 91.184 19.9435C91.515 19.9608 91.843 19.8738 92.122 19.695C92.4011 19.5161 92.617 19.2543 92.7396 18.9463C92.7592 18.8074 92.7592 18.6664 92.7396 18.5275V17.4306Z" fill="white"/>
<path d="M98.2628 12.465C98.0704 12.4476 97.8871 12.3746 97.7354 12.255C97.5836 12.1354 97.4698 11.9743 97.4079 11.7913C97.346 11.6082 97.3386 11.4111 97.3867 11.224C97.4347 11.0368 97.5361 10.8676 97.6784 10.737C97.8208 10.6064 97.9981 10.5199 98.1887 10.4882C98.3793 10.4564 98.575 10.4807 98.7521 10.5581C98.9291 10.6355 99.0799 10.7627 99.186 10.9242C99.2921 11.0857 99.349 11.2745 99.3498 11.4678C99.3503 11.6066 99.3219 11.7441 99.2663 11.8713C99.2106 11.9985 99.129 12.1127 99.0267 12.2066C98.9244 12.3005 98.8036 12.372 98.6721 12.4164C98.5405 12.4609 98.4011 12.4775 98.2628 12.465ZM97.2656 21.1406V13.5519H99.1803V21.1406H97.2656Z" fill="white"/>
<path d="M101.98 10.0713H103.895V21.1402H101.98V10.0713Z" fill="white"/>
<path d="M112.554 19.3161C112.545 19.927 112.589 20.5376 112.684 21.141H110.959L110.819 20.2934H110.769C110.5 20.6212 110.158 20.8818 109.77 21.0549C109.382 21.2279 108.96 21.3086 108.536 21.2906C108.228 21.3083 107.92 21.2628 107.631 21.1569C107.342 21.051 107.077 20.8869 106.854 20.6747C106.631 20.4626 106.453 20.2069 106.332 19.9235C106.212 19.6401 106.151 19.335 106.152 19.027C106.152 17.1323 107.848 16.155 110.65 16.165V16.0453C110.65 15.5467 110.45 14.7191 109.104 14.7191C108.402 14.7264 107.714 14.919 107.11 15.2775L106.701 14.0509C107.542 13.595 108.487 13.3648 109.443 13.3828C111.876 13.3828 112.574 14.9285 112.574 16.5938L112.554 19.3161ZM110.69 17.4314C109.343 17.4314 108.047 17.7007 108.047 18.8475C108.032 18.9935 108.049 19.1412 108.098 19.2798C108.146 19.4184 108.224 19.5447 108.327 19.6494C108.43 19.7542 108.555 19.835 108.693 19.886C108.83 19.937 108.978 19.9569 109.124 19.9444C109.457 19.9637 109.787 19.8778 110.068 19.6988C110.349 19.5198 110.567 19.2568 110.69 18.9472C110.709 18.8083 110.709 18.6673 110.69 18.5284V17.4314Z" fill="white"/>
<path d="M115.254 10.0713H117.169V14.5986C117.44 14.1939 117.813 13.8683 118.251 13.6546C118.689 13.441 119.176 13.3469 119.662 13.382C121.516 13.382 122.833 14.9276 122.823 17.2312C122.823 19.9535 121.088 21.3097 119.382 21.3097C118.9 21.3342 118.421 21.2251 117.997 20.9947C117.573 20.7642 117.221 20.4212 116.979 20.0034L116.889 21.1402H115.254C115.254 20.6216 115.314 19.784 115.314 19.0161L115.254 10.0713ZM117.169 18.0489C117.153 18.1981 117.153 18.3484 117.169 18.4976C117.26 18.8782 117.477 19.2169 117.785 19.4593C118.092 19.7016 118.472 19.8336 118.864 19.8338C120.06 19.8338 120.798 18.8366 120.798 17.3508C120.798 16.0046 120.16 14.9177 118.884 14.9177C118.483 14.9282 118.098 15.0723 117.789 15.3271C117.48 15.5819 117.265 15.9327 117.178 16.3237C117.141 16.4873 117.121 16.6545 117.119 16.8223L117.169 18.0489Z" fill="white"/>
<path d="M125.047 10.0713H126.961V21.1402H125.047V10.0713Z" fill="white"/>
<path d="M131.083 17.8796C131.09 18.1689 131.158 18.4536 131.283 18.7149C131.407 18.9763 131.585 19.2085 131.805 19.3966C132.025 19.5847 132.283 19.7244 132.56 19.8066C132.838 19.8889 133.129 19.9118 133.416 19.8739C134.132 19.8836 134.844 19.7689 135.52 19.5349L135.8 20.8412C134.959 21.1748 134.061 21.3376 133.157 21.3199C132.638 21.3692 132.115 21.3047 131.624 21.1309C131.133 20.957 130.685 20.678 130.313 20.3134C129.941 19.9487 129.653 19.5072 129.469 19.0197C129.285 18.5321 129.21 18.0103 129.248 17.4906C129.248 15.3965 130.525 13.4121 132.958 13.4121C135.391 13.4121 136.219 15.4065 136.219 17.1017C136.221 17.3722 136.201 17.6424 136.159 17.9095L131.083 17.8796ZM134.414 16.5433C134.446 16.3164 134.43 16.0852 134.367 15.8649C134.304 15.6445 134.194 15.4401 134.047 15.2649C133.899 15.0898 133.716 14.9479 133.509 14.8485C133.302 14.7492 133.077 14.6947 132.848 14.6885C132.374 14.7186 131.929 14.9263 131.602 15.2702C131.275 15.614 131.09 16.0687 131.083 16.5433H134.414Z" fill="white"/>
<path d="M145.671 21.3098C145.158 21.329 144.646 21.2402 144.169 21.0491C143.692 20.858 143.26 20.5688 142.902 20.2003C142.544 19.8318 142.267 19.3922 142.09 18.9099C141.912 18.4277 141.838 17.9135 141.872 17.4007C141.836 16.8736 141.912 16.3449 142.096 15.8494C142.279 15.3539 142.565 14.9028 142.935 14.5259C143.306 14.1491 143.752 13.8549 144.244 13.6629C144.736 13.4709 145.263 13.3854 145.791 13.412C146.301 13.3899 146.811 13.4756 147.286 13.6633C147.761 13.851 148.191 14.1366 148.548 14.5016C148.906 14.8665 149.182 15.3026 149.36 15.7815C149.538 16.2604 149.613 16.7713 149.58 17.2811C149.614 17.8043 149.538 18.3289 149.356 18.8208C149.175 19.3127 148.892 19.7611 148.527 20.137C148.161 20.5129 147.721 20.8079 147.234 21.0031C146.747 21.1982 146.225 21.2891 145.701 21.2699L145.671 21.3098ZM145.731 19.9237C146.818 19.9237 147.586 18.8666 147.586 17.321C147.586 16.1443 147.057 14.7681 145.741 14.7681C144.425 14.7681 143.846 16.0944 143.846 17.3509C143.846 18.8168 144.574 19.9237 145.711 19.9237H145.731Z" fill="white"/>
<path d="M151.814 15.8157C151.814 14.9382 151.814 14.2103 151.754 13.5521H153.419L153.509 14.6889H153.569C153.825 14.2797 154.183 13.9441 154.608 13.715C155.032 13.486 155.509 13.3714 155.992 13.3826C157.318 13.3826 158.684 14.2402 158.684 16.6334V21.1408H156.76V16.8528C156.76 15.7659 156.361 14.9382 155.314 14.9382C154.979 14.9488 154.655 15.0628 154.387 15.2646C154.12 15.4663 153.921 15.7459 153.818 16.065C153.754 16.2612 153.723 16.4669 153.728 16.6733V21.1408H151.814V15.8157Z" fill="white"/>
<path d="M167.531 11.6074V13.552H169.356V14.958H167.531V18.2886C167.531 19.226 167.78 19.6947 168.528 19.6947C168.78 19.7052 169.032 19.6783 169.276 19.6149V21.0608C168.828 21.205 168.36 21.2724 167.89 21.2603C167.588 21.2762 167.285 21.2295 167.002 21.1231C166.719 21.0167 166.461 20.8529 166.244 20.642C165.775 20.035 165.558 19.271 165.636 18.508V14.958H164.539V13.552H165.616V12.1359L167.531 11.6074Z" fill="white"/>
<path d="M171.445 10.0713H173.36V14.5786C173.612 14.213 173.956 13.9205 174.357 13.731C174.758 13.5029 175.212 13.3827 175.673 13.382C176.97 13.382 178.326 14.2396 178.326 16.6727V21.1402H176.401V16.8722C176.401 15.7852 175.993 14.9376 174.935 14.9376C174.605 14.9403 174.284 15.0454 174.016 15.2383C173.748 15.4311 173.547 15.7024 173.44 16.0146C173.382 16.2018 173.355 16.3971 173.36 16.593V21.1402H171.445V10.0713Z" fill="white"/>
<path d="M182.388 17.8796C182.395 18.1699 182.463 18.4555 182.588 18.7176C182.713 18.9797 182.892 19.2125 183.113 19.4008C183.335 19.589 183.593 19.7285 183.872 19.81C184.15 19.8915 184.443 19.9133 184.731 19.8739C185.444 19.8836 186.152 19.7689 186.825 19.5349L187.104 20.8412C186.264 21.1748 185.366 21.3376 184.462 21.3199C183.943 21.3692 183.42 21.3047 182.929 21.1309C182.437 20.957 181.99 20.678 181.618 20.3134C181.245 19.9487 180.957 19.5072 180.773 19.0197C180.589 18.5321 180.514 18.0103 180.553 17.4906C180.553 15.3965 181.829 13.4121 184.262 13.4121C186.696 13.4121 187.533 15.4065 187.533 17.1017C187.534 17.3725 187.51 17.6428 187.463 17.9095L182.388 17.8796ZM185.718 16.5433C185.751 16.3164 185.735 16.0852 185.672 15.8649C185.608 15.6445 185.499 15.4401 185.351 15.2649C185.203 15.0898 185.02 14.9479 184.814 14.8485C184.607 14.7492 184.382 14.6947 184.153 14.6885C183.679 14.7186 183.234 14.9263 182.907 15.2702C182.58 15.614 182.394 16.0687 182.388 16.5433H185.718Z" fill="white"/>
<path d="M48.4341 31.3117C48.4513 29.739 48.8651 28.1961 49.6374 26.826C50.4096 25.4558 51.5152 24.3028 52.8517 23.4737C51.9979 22.2561 50.872 21.2543 49.5633 20.5481C48.2546 19.8418 46.7993 19.4505 45.3129 19.4051C42.1418 19.0661 39.0704 21.2998 37.4549 21.2998C35.8395 21.2998 33.3166 19.4351 30.6441 19.4949C28.9117 19.5498 27.223 20.0527 25.7428 20.9545C24.2626 21.8562 23.0412 23.1262 22.1978 24.6404C18.5481 30.9627 21.2704 40.2466 24.7706 45.3622C26.5257 47.8651 28.5699 50.6573 31.2424 50.5576C33.9149 50.4579 34.9021 48.8623 38.0233 48.8623C41.1446 48.8623 42.0819 50.5277 44.8043 50.4678C47.5266 50.408 49.3814 47.9449 51.0767 45.422C52.3375 43.6436 53.3038 41.6739 53.9386 39.5884C52.303 38.9026 50.9072 37.7476 49.9276 36.2692C48.9479 34.7908 48.4282 33.0553 48.4341 31.2818" fill="white"/>
<path d="M43.2711 16.0446C44.8116 14.2094 45.5675 11.8414 45.3751 9.45312C43.0361 9.70047 40.8755 10.8181 39.3222 12.5843C38.562 13.4508 37.9805 14.4588 37.6108 15.5506C37.2412 16.6424 37.0908 17.7964 37.1682 18.9464C38.3378 18.9626 39.4956 18.7114 40.5532 18.212C41.6109 17.7125 42.5405 16.978 43.2711 16.0645" fill="white"/>
<path d="M86.268 50.1395H82.6183L80.6239 43.8671H73.6435L71.7987 50.1395H68.2188L75.1094 28.7695H79.3574L86.268 50.1395ZM80.0256 41.2245L78.2206 35.6502C78.0212 35.0818 77.6622 33.7356 77.1337 31.6614H77.0739C76.8644 32.5688 76.5254 33.9151 76.0767 35.6502L74.3017 41.2245H80.0256Z" fill="white"/>
<path d="M103.969 42.2416C104.093 44.5125 103.332 46.743 101.845 48.4641C101.244 49.1124 100.511 49.6254 99.6963 49.9693C98.8814 50.3131 98.0028 50.4799 97.1186 50.4585C96.262 50.5315 95.4017 50.3695 94.6304 49.99C93.859 49.6104 93.2057 49.0277 92.7409 48.3045H92.6811V56.4217H89.2507V39.7984C89.2507 38.1531 89.2507 36.4678 89.1211 34.7327H92.1127L92.3121 37.1758H92.3719C92.8906 36.3809 93.5877 35.7181 94.4078 35.2404C95.2279 34.7626 96.1483 34.483 97.0956 34.4239C98.0429 34.3648 98.9908 34.5279 99.864 34.9C100.737 35.2722 101.511 35.8432 102.125 36.5675C103.397 38.1769 104.045 40.192 103.949 42.2416H103.969ZM100.459 42.3712C100.52 41.0611 100.172 39.7645 99.462 38.6616C99.1312 38.1769 98.6839 37.7832 98.1611 37.5166C97.6384 37.25 97.057 37.1191 96.4704 37.1359C95.6308 37.1343 94.8179 37.4312 94.1769 37.9736C93.4926 38.538 93.0213 39.3189 92.8406 40.1873C92.7479 40.5122 92.6943 40.847 92.6811 41.1845V43.7573C92.6427 44.7966 92.999 45.8119 93.6783 46.5993C94.0131 46.9771 94.427 47.2766 94.8906 47.4765C95.3542 47.6765 95.8561 47.7719 96.3607 47.7561C96.9446 47.7762 97.5242 47.6499 98.0468 47.3886C98.5693 47.1274 99.0181 46.7395 99.3523 46.2603C100.12 45.0983 100.497 43.7221 100.429 42.3313" fill="white"/>
<path d="M121.659 42.2416C121.784 44.5144 121.019 46.7467 119.525 48.4641C118.926 49.1131 118.195 49.6268 117.382 49.9708C116.568 50.3147 115.691 50.481 114.808 50.4585C113.948 50.5284 113.086 50.3619 112.314 49.977C111.543 49.592 110.891 49.0033 110.43 48.2746H110.37V56.3918H106.94V39.7984C106.94 38.1531 106.94 36.4678 106.82 34.7327H109.812L110.011 37.1758H110.071C110.59 36.3809 111.287 35.7181 112.107 35.2404C112.927 34.7626 113.848 34.483 114.795 34.4239C115.742 34.3648 116.69 34.5279 117.563 34.9C118.436 35.2722 119.21 35.8432 119.824 36.5675C121.1 38.1755 121.752 40.1908 121.659 42.2416ZM118.168 42.3712C118.229 41.0611 117.881 39.7645 117.171 38.6616C116.882 38.2549 116.511 37.9122 116.083 37.6551C115.655 37.398 115.179 37.232 114.684 37.1674C114.189 37.1028 113.685 37.1411 113.206 37.2798C112.726 37.4185 112.28 37.6547 111.896 37.9736C111.208 38.5365 110.733 39.3175 110.55 40.1873C110.457 40.5122 110.404 40.847 110.39 41.1845V43.7573C110.352 44.7966 110.708 45.8119 111.387 46.5993C111.722 46.9777 112.136 47.2775 112.599 47.4775C113.063 47.6775 113.565 47.7726 114.07 47.7561C114.654 47.7762 115.233 47.6499 115.756 47.3886C116.278 47.1274 116.727 46.7395 117.062 46.2603C117.829 45.0983 118.206 43.7221 118.138 42.3313" fill="white"/>
<path d="M141.523 44.1464C141.551 44.9815 141.393 45.8124 141.062 46.5796C140.731 47.3468 140.235 48.0313 139.608 48.5839C137.973 49.9208 135.893 50.5904 133.784 50.4587C131.851 50.5511 129.931 50.0911 128.25 49.1324L129.038 46.2704C130.538 47.1857 132.266 47.6592 134.024 47.6366C135.091 47.6969 136.146 47.3908 137.015 46.769C137.365 46.4894 137.645 46.1319 137.832 45.725C138.019 45.3181 138.108 44.8732 138.092 44.4256C138.104 44.02 138.031 43.6165 137.878 43.2406C137.725 42.8647 137.496 42.5245 137.205 42.2418C136.336 41.4849 135.316 40.9207 134.213 40.5864C130.497 39.1904 128.639 37.1461 128.639 34.4537C128.621 33.6296 128.791 32.8123 129.137 32.064C129.482 31.3158 129.994 30.6563 130.633 30.1358C132.11 28.9534 133.969 28.3538 135.859 28.4505C137.534 28.3842 139.201 28.7265 140.715 29.4477L139.857 32.2299C138.6 31.5595 137.194 31.2166 135.769 31.2327C134.751 31.1679 133.745 31.4842 132.947 32.1202C132.674 32.3626 132.456 32.6607 132.308 32.9945C132.16 33.3282 132.086 33.6898 132.089 34.0548C132.084 34.4569 132.171 34.855 132.344 35.2181C132.517 35.5812 132.771 35.8997 133.086 36.1489C134.028 36.8612 135.079 37.4169 136.198 37.7943C137.734 38.3363 139.123 39.2272 140.256 40.397C141.138 41.428 141.604 42.7506 141.563 44.1065" fill="white"/>
<path d="M152.845 37.2951H149.075V44.7841C149.075 46.6887 149.733 47.6361 151.07 47.6361C151.583 47.6486 152.096 47.595 152.595 47.4765L152.685 50.0792C151.826 50.3584 150.925 50.4866 150.022 50.4581C149.436 50.4926 148.849 50.3999 148.302 50.1865C147.754 49.9731 147.26 49.6439 146.851 49.2216C145.975 48.0217 145.567 46.5429 145.705 45.0633V37.2951H143.461V34.7224H145.705V31.9103L149.075 30.9131V34.7423H152.845V37.2951Z" fill="white"/>
<path d="M169.875 42.3116C169.964 44.4372 169.252 46.5189 167.88 48.1451C167.166 48.9226 166.292 49.535 165.317 49.9397C164.342 50.3444 163.291 50.5317 162.236 50.4886C161.223 50.5351 160.213 50.3572 159.277 49.9676C158.341 49.578 157.502 48.9863 156.821 48.2349C155.463 46.6641 154.75 44.6364 154.827 42.5609C154.741 40.4109 155.487 38.3106 156.911 36.6973C157.62 35.9314 158.489 35.3301 159.455 34.9355C160.422 34.541 161.463 34.3629 162.505 34.4138C163.524 34.3682 164.54 34.5464 165.483 34.9357C166.425 35.3251 167.271 35.9162 167.96 36.6674C169.321 38.225 170.035 40.2445 169.954 42.3116H169.875ZM166.404 42.4212C166.44 41.1403 166.123 39.8741 165.487 38.7615C165.195 38.1801 164.741 37.6951 164.181 37.3644C163.62 37.0338 162.976 36.8714 162.326 36.8968C161.682 36.8795 161.046 37.0432 160.491 37.3693C159.936 37.6954 159.483 38.1709 159.185 38.7416C158.545 39.8743 158.228 41.1608 158.267 42.4611C158.231 43.7421 158.549 45.0083 159.185 46.1208C159.483 46.6854 159.931 47.1566 160.48 47.4821C161.029 47.8077 161.658 47.9751 162.296 47.9657C162.932 47.9694 163.556 47.796 164.098 47.4648C164.641 47.1337 165.08 46.6579 165.367 46.0909C166.04 44.979 166.385 43.7004 166.365 42.4013" fill="white"/>
<path d="M181.001 37.7438C180.646 37.6738 180.286 37.6403 179.924 37.6441C179.382 37.6214 178.842 37.7345 178.355 37.9731C177.867 38.2116 177.447 38.5681 177.132 39.0103C176.538 39.9102 176.241 40.9741 176.284 42.0517V50.139H172.854V39.5787C172.854 37.8036 172.814 36.1882 172.734 34.7323H175.726L175.846 37.7239H175.945C176.268 36.7657 176.86 35.9209 177.651 35.2907C178.367 34.7528 179.238 34.4623 180.134 34.463C180.417 34.461 180.701 34.481 180.981 34.5229L181.001 37.7438Z" fill="white"/>
<path d="M196.319 41.7029C196.327 42.224 196.287 42.7447 196.199 43.2585H185.928C185.906 43.9135 186.027 44.5654 186.284 45.1683C186.541 45.7713 186.927 46.3107 187.414 46.7487C188.364 47.5116 189.557 47.9079 190.775 47.8656C192.194 47.8851 193.605 47.6382 194.933 47.1376L195.471 49.5209C193.833 50.2042 192.071 50.5436 190.296 50.5181C189.263 50.5743 188.23 50.4155 187.262 50.0516C186.294 49.6876 185.412 49.1266 184.672 48.4041C183.971 47.6453 183.43 46.7543 183.079 45.7834C182.728 44.8124 182.574 43.7811 182.627 42.7499C182.54 40.6335 183.216 38.5562 184.532 36.8964C185.173 36.0919 185.995 35.4497 186.93 35.0218C187.866 34.5939 188.889 34.3923 189.917 34.4333C190.899 34.3768 191.878 34.5736 192.762 35.005C193.646 35.4363 194.404 36.0876 194.963 36.8964C195.905 38.3367 196.378 40.0329 196.319 41.7527V41.7029ZM193.058 40.8652C193.103 39.9408 192.87 39.0241 192.39 38.2326C192.108 37.7709 191.705 37.3945 191.226 37.1434C190.747 36.8922 190.208 36.7759 189.668 36.8066C189.133 36.7973 188.604 36.9198 188.127 37.1632C187.651 37.4067 187.241 37.7637 186.935 38.2027C186.356 38.9768 186.01 39.9007 185.938 40.8652H193.058Z" fill="white"/>
</svg>
