<svg width="30" height="28" viewBox="0 0 30 28" fill="none" xmlns="http://www.w3.org/2000/svg">
<path d="M0.902344 15.4168H8.66143C8.90384 19.9031 10.3339 24.2446 12.8052 27.9967C9.70967 27.5105 6.86254 26.0122 4.70895 23.7361C2.55536 21.46 1.21673 18.5344 0.902344 15.4168ZM0.902344 12.5834C1.21673 9.46576 2.55536 6.54017 4.70895 4.26406C6.86254 1.98795 9.70967 0.48965 12.8052 0.00341797C10.3339 3.75562 8.90384 8.09704 8.66143 12.5834H0.902344ZM29.094 12.5834H21.3349C21.0925 8.09704 19.6625 3.75562 17.1912 0.00341797C20.2867 0.48965 23.1338 1.98795 25.2874 4.26406C27.441 6.54017 28.7796 9.46576 29.094 12.5834ZM29.094 15.4168C28.7796 18.5344 27.441 21.46 25.2874 23.7361C23.1338 26.0122 20.2867 27.5105 17.1912 27.9967C19.6625 24.2446 21.0925 19.9031 21.3349 15.4168H29.0954H29.094ZM11.499 15.4168H18.4973C18.2642 19.241 17.0599 22.9427 14.9982 26.1721C12.9365 22.9427 11.7322 19.241 11.499 15.4168ZM11.499 12.5834C11.7322 8.75915 12.9365 5.05747 14.9982 1.82808C17.0599 5.05747 18.2642 8.75915 18.4973 12.5834H11.499Z" fill="#43B681"/>
</svg>
