<svg width="217" height="64" viewBox="0 0 217 64" fill="none" xmlns="http://www.w3.org/2000/svg">
<g clip-path="url(#clip0_19134_32531)">
<path d="M208.843 63.8704H8.16704C6.00101 63.8704 3.92369 63.01 2.39207 61.4784C0.860454 59.9468 0 57.8694 0 55.7034L0 8.16704C0 6.00101 0.860454 3.92369 2.39207 2.39207C3.92369 0.860453 6.00101 0 8.16704 0H208.843C211.007 0.00264262 213.082 0.864262 214.611 2.39559C216.141 3.92692 217 6.00273 217 8.16704V55.7034C217 57.8677 216.141 59.9435 214.611 61.4748C213.082 63.0062 211.007 63.8678 208.843 63.8704ZM8.16704 1.61546C6.42945 1.61546 4.76303 2.30571 3.53437 3.53437C2.30571 4.76303 1.61546 6.42945 1.61546 8.16704V55.7034C1.61546 57.4419 2.30539 59.1094 3.53377 60.3396C4.76214 61.5698 6.42854 62.2623 8.16704 62.2649H208.843C210.581 62.2623 212.248 61.5698 213.476 60.3396C214.705 59.1094 215.394 57.4419 215.394 55.7034V8.16704C215.394 6.42945 214.704 4.76303 213.476 3.53437C212.247 2.30571 210.58 1.61546 208.843 1.61546H8.16704Z" fill="white"/>
<path d="M109.473 34.9018C108.125 34.9057 106.808 35.3091 105.689 36.061C104.57 36.8129 103.699 37.8795 103.185 39.1262C102.672 40.3729 102.54 41.7437 102.805 43.0655C103.071 44.3873 103.722 45.6007 104.677 46.5527C105.631 47.5046 106.847 48.1522 108.169 48.4138C109.492 48.6754 110.862 48.5391 112.108 48.0223C113.353 47.5055 114.417 46.6312 115.165 45.51C115.914 44.3887 116.314 43.0708 116.314 41.7226C116.327 40.8215 116.159 39.9268 115.82 39.0918C115.481 38.2569 114.977 37.4987 114.339 36.8623C113.701 36.226 112.941 35.7245 112.105 35.3877C111.269 35.0509 110.374 34.8856 109.473 34.9018ZM109.473 45.8709C108.642 45.931 107.812 45.7395 107.091 45.3213C106.371 44.903 105.793 44.2775 105.433 43.5261C105.073 42.7748 104.947 41.9324 105.073 41.1087C105.198 40.285 105.569 39.5182 106.136 38.9081C106.704 38.2981 107.442 37.873 108.254 37.6883C109.066 37.5036 109.916 37.5678 110.691 37.8726C111.467 38.1774 112.132 38.7086 112.601 39.3971C113.071 40.0856 113.322 40.8994 113.322 41.7326C113.342 42.2573 113.258 42.7808 113.075 43.273C112.893 43.7653 112.614 44.2166 112.257 44.6011C111.899 44.9856 111.469 45.2957 110.991 45.5136C110.514 45.7315 109.998 45.8529 109.473 45.8709ZM94.5148 34.9018C93.1666 34.9057 91.8499 35.3091 90.7308 36.061C89.6118 36.8129 88.7406 37.8795 88.2274 39.1262C87.7142 40.3729 87.582 41.7437 87.8474 43.0655C88.1129 44.3873 88.7641 45.6007 89.7188 46.5527C90.6735 47.5046 91.8888 48.1522 93.2114 48.4138C94.534 48.6754 95.9044 48.5391 97.1496 48.0223C98.3947 47.5055 99.4588 46.6312 100.207 45.51C100.956 44.3887 101.356 43.0708 101.356 41.7226C101.369 40.8232 101.202 39.9302 100.864 39.0966C100.526 38.2629 100.024 37.5057 99.3878 36.8696C98.7517 36.2335 97.9944 35.7316 97.1608 35.3936C96.3272 35.0556 95.4342 34.8883 94.5348 34.9018H94.5148ZM94.5148 45.8709C93.6838 45.931 92.854 45.7395 92.1333 45.3213C91.4127 44.903 90.8348 44.2775 90.4747 43.5261C90.1146 42.7748 89.9892 41.9324 90.1146 41.1087C90.2401 40.285 90.6107 39.5182 91.1781 38.9081C91.7456 38.2981 92.4836 37.873 93.296 37.6883C94.1085 37.5036 94.9577 37.5678 95.7332 37.8726C96.5086 38.1774 97.1743 38.7086 97.6435 39.3971C98.1128 40.0856 98.3638 40.8994 98.364 41.7326C98.4045 42.789 98.0239 43.8183 97.3059 44.5943C96.5878 45.3702 95.5912 45.8294 94.5348 45.8709H94.5148ZM76.7847 37.0258V39.8878H83.7052C83.6045 41.2437 83.0494 42.5261 82.1296 43.5275C81.4391 44.2407 80.6066 44.801 79.6859 45.172C78.7651 45.5431 77.7767 45.7166 76.7847 45.6815C74.7429 45.6815 72.7848 44.8704 71.3411 43.4267C69.8974 41.983 69.0863 40.0248 69.0863 37.9831C69.0863 35.9414 69.8974 33.9833 71.3411 32.5396C72.7848 31.0958 74.7429 30.2848 76.7847 30.2848C78.7274 30.2574 80.6022 30.9994 82 32.349L84.0443 30.3546C83.0938 29.3997 81.9618 28.6449 80.715 28.1345C79.4682 27.6241 78.1318 27.3686 76.7847 27.3829C75.3659 27.3394 73.9529 27.5812 72.6294 28.0941C71.3059 28.607 70.0989 29.3804 69.0799 30.3686C68.061 31.3567 67.2509 32.5395 66.6977 33.8466C66.1444 35.1538 65.8594 36.5587 65.8594 37.9781C65.8594 39.3975 66.1444 40.8025 66.6977 42.1096C67.2509 43.4168 68.061 44.5995 69.0799 45.5877C70.0989 46.5758 71.3059 47.3493 72.6294 47.8622C73.9529 48.375 75.3659 48.6169 76.7847 48.5733C78.1579 48.6264 79.5268 48.3872 80.8007 47.8715C82.0746 47.3557 83.2243 46.5753 84.1739 45.5818C85.8617 43.739 86.7602 41.3083 86.6768 38.8108C86.683 38.2058 86.6329 37.6016 86.5273 37.0059L76.7847 37.0258ZM149.45 39.2695C149.044 38.0269 148.263 36.9403 147.215 36.1585C146.168 35.3766 144.904 34.9377 143.597 34.9018C142.721 34.9073 141.854 35.0905 141.051 35.4402C140.247 35.79 139.523 36.299 138.922 36.9365C138.321 37.5741 137.855 38.3269 137.553 39.1495C137.251 39.9722 137.119 40.8475 137.165 41.7226C137.146 42.6193 137.308 43.5106 137.641 44.3433C137.974 45.1761 138.471 45.9333 139.103 46.5698C139.735 47.2063 140.488 47.7091 141.319 48.0482C142.149 48.3872 143.039 48.5557 143.936 48.5434C145.057 48.5534 146.163 48.2854 147.155 47.7633C148.147 47.2413 148.994 46.4814 149.62 45.5518L147.296 43.9962C146.948 44.5757 146.455 45.0549 145.866 45.387C145.277 45.7191 144.612 45.8927 143.936 45.8909C143.236 45.9216 142.544 45.7399 141.949 45.3697C141.355 44.9995 140.886 44.4581 140.605 43.8167L149.73 40.0473L149.45 39.2695ZM140.147 41.5431C140.113 41.0454 140.179 40.546 140.341 40.0743C140.503 39.6026 140.758 39.1682 141.091 38.7965C141.424 38.4248 141.827 38.1234 142.278 37.9101C142.729 37.6968 143.218 37.5758 143.716 37.5543C144.234 37.5215 144.749 37.641 145.2 37.8979C145.65 38.1549 146.015 38.5381 146.249 39.0003L140.147 41.5431ZM132.737 48.1645H135.729V28.1109H132.737V48.1645ZM127.821 36.4574H127.721C127.267 35.9618 126.711 35.5692 126.092 35.3061C125.472 35.0429 124.804 34.9153 124.132 34.9317C122.386 35.0261 120.744 35.7859 119.542 37.0547C118.34 38.3235 117.67 40.0048 117.67 41.7525C117.67 43.5003 118.34 45.1816 119.542 46.4504C120.744 47.7192 122.386 48.4789 124.132 48.5733C124.806 48.5912 125.477 48.4622 126.097 48.1954C126.716 47.9285 127.271 47.5301 127.721 47.0277H127.821V48.0249C127.821 50.6375 126.425 52.0137 124.181 52.0137C123.431 51.9955 122.703 51.7544 122.091 51.3211C121.478 50.8877 121.008 50.2818 120.741 49.5805L118.138 50.6675C118.636 51.8574 119.476 52.8722 120.552 53.5826C121.628 54.293 122.892 54.6668 124.181 54.6562C127.692 54.6562 130.663 52.592 130.663 47.5562V35.3405H127.821V36.4574ZM124.371 45.8709C123.85 45.857 123.336 45.7389 122.861 45.5236C122.387 45.3083 121.959 45.0002 121.605 44.6173C121.251 44.2345 120.978 43.7847 120.8 43.2944C120.622 42.8041 120.545 42.2833 120.572 41.7625C120.523 40.706 120.896 39.6733 121.608 38.8917C122.321 38.11 123.314 37.6433 124.371 37.5942C126.365 37.5942 128.011 39.3592 128.011 41.7625C128.05 42.273 127.986 42.7863 127.823 43.2717C127.66 43.7571 127.401 44.2047 127.061 44.588C126.722 44.9713 126.309 45.2824 125.846 45.5028C125.384 45.7232 124.882 45.8484 124.371 45.8709ZM163.471 28.0909H156.301V48.1645H159.293V40.5659H163.471C164.31 40.5994 165.147 40.4632 165.931 40.1654C166.716 39.8675 167.433 39.4142 168.038 38.8326C168.644 38.2511 169.125 37.5532 169.454 36.7809C169.783 36.0086 169.953 35.1778 169.953 34.3384C169.953 33.4989 169.783 32.6681 169.454 31.8958C169.125 31.1235 168.644 30.4257 168.038 29.8441C167.433 29.2625 166.716 28.8092 165.931 28.5113C165.147 28.2135 164.31 28.0773 163.471 28.1109V28.0909ZM163.551 37.7538H159.293V30.913H163.541C164.007 30.8878 164.474 30.958 164.913 31.1193C165.352 31.2806 165.753 31.5296 166.092 31.8511C166.431 32.1725 166.702 32.5598 166.886 32.9891C167.071 33.4185 167.166 33.881 167.166 34.3483C167.166 34.8157 167.071 35.2782 166.886 35.7076C166.702 36.1369 166.431 36.5241 166.092 36.8456C165.753 37.1671 165.352 37.4161 164.913 37.5773C164.474 37.7386 164.007 37.8088 163.541 37.7837L163.551 37.7538ZM182.039 34.9018C180.947 34.8385 179.861 35.0954 178.913 35.6411C177.965 36.1867 177.197 36.9972 176.704 37.9731L179.356 39.08C179.622 38.5957 180.022 38.1991 180.509 37.9388C180.996 37.6785 181.549 37.5657 182.099 37.6142C183.644 37.6142 185.22 38.5415 185.24 40.1969V40.3963C184.278 39.8871 183.206 39.6234 182.119 39.6285C179.257 39.6285 176.345 41.1941 176.345 44.1358C176.345 46.8183 178.688 48.5534 181.331 48.5534C182.088 48.5938 182.842 48.4301 183.513 48.0792C184.185 47.7283 184.751 47.2033 185.15 46.559H185.25V48.1047H188.142V40.4362C188.132 36.8962 185.479 34.9018 182.039 34.9018ZM181.68 45.8709C180.683 45.8709 179.336 45.3823 179.336 44.1657C179.336 42.6201 181.042 42.0317 182.507 42.0317C183.462 42.004 184.406 42.2349 185.24 42.6999C185.131 43.5699 184.71 44.371 184.056 44.9542C183.401 45.5375 182.557 45.8632 181.68 45.8709ZM198.632 35.3206L195.202 44.0162H195.102L191.542 35.3206H188.321L193.656 47.4764L190.615 54.2274H193.736L201.963 35.2807L198.632 35.3206ZM171.708 48.1545H174.699V28.1109H171.708V48.1545Z" fill="white"/>
<path d="M16.9509 12.1458C16.4272 12.7759 16.1634 13.5818 16.2129 14.3995V49.8598C16.1645 50.6713 16.4285 51.4706 16.9509 52.0935L17.0705 52.2132L36.8948 32.359V31.9103L17.0406 12.0361L16.9509 12.1458Z" fill="#5BC9F4"/>
<path d="M43.5198 38.9806L36.8984 32.3592V31.9104L43.5198 25.2891L43.6694 25.3688L51.5074 29.8263C53.7511 31.1027 53.7511 33.1869 51.5074 34.4533L43.6694 38.8908L43.5198 38.9806Z" fill="url(#paint0_linear_19134_32531)"/>
<path d="M43.668 38.8911L36.8971 32.1201L16.9531 52.0641C17.6911 52.8419 18.9475 52.9416 20.2838 52.1638L43.668 38.8911Z" fill="url(#paint1_linear_19134_32531)"/>
<path d="M43.6667 25.3492L20.2525 12.0466C18.8764 11.2688 17.6598 11.3685 16.9219 12.1464L36.8658 32.0903L43.6667 25.3492Z" fill="url(#paint2_linear_19134_32531)"/>
<path d="M73.724 13.2825C73.0962 12.7263 72.2891 12.4147 71.4504 12.4049C70.9816 12.4114 70.5188 12.5106 70.0886 12.697C69.6584 12.8833 69.2693 13.1529 68.9439 13.4904C68.6185 13.8279 68.3631 14.2265 68.1926 14.6632C68.022 15.0999 67.9397 15.566 67.9502 16.0347C67.9383 16.5033 68.0198 16.9695 68.19 17.4063C68.3602 17.843 68.6156 18.2415 68.9414 18.5784C69.2673 18.9154 69.6569 19.1841 70.0877 19.3688C70.5184 19.5536 70.9817 19.6507 71.4504 19.6546C71.8155 19.6887 72.1837 19.6492 72.5332 19.5385C72.8828 19.4278 73.2066 19.2482 73.4855 19.0102C73.7644 18.7722 73.9928 18.4806 74.1571 18.1528C74.3214 17.825 74.4182 17.4676 74.442 17.1017H71.7994V15.955H75.9278C75.9278 19.2656 74.1628 20.8312 71.4703 20.8312C70.2243 20.7747 69.0481 20.2399 68.1864 19.3382C67.3246 18.4364 66.8438 17.2371 66.8438 15.9899C66.8438 14.7426 67.3246 13.5433 68.1864 12.6416C69.0481 11.7398 70.2243 11.205 71.4703 11.1485C72.6536 11.1444 73.7942 11.59 74.6614 12.395L73.724 13.2825Z" fill="white"/>
<path d="M83.2366 11.2979V12.4845H78.9288V15.4761H82.6882V16.6727H78.9288V19.5447H83.3762V20.7313H77.6523V11.2979H83.2366Z" fill="white"/>
<path d="M91.4947 11.2979V12.5045H88.6327V20.7313H87.3463V12.5045H84.4844V11.2979H91.4947Z" fill="white"/>
<path d="M97.6045 11.2979V20.7313H96.3281V11.2979H97.6045Z" fill="white"/>
<path d="M106.292 11.2979V12.5045H103.43V20.7313H102.143V12.5045H99.2812V11.2979H106.292Z" fill="white"/>
<path d="M115.275 11.1882C116.237 11.1723 117.181 11.443 117.989 11.9659C118.796 12.4887 119.43 13.2399 119.809 14.124C120.188 15.008 120.295 15.9849 120.117 16.9302C119.939 17.8755 119.484 18.7464 118.81 19.4322C118.135 20.118 117.272 20.5876 116.33 20.7811C115.388 20.9747 114.409 20.8835 113.519 20.5191C112.629 20.1548 111.867 19.5338 111.331 18.7351C110.795 17.9365 110.508 16.9964 110.508 16.0345C110.5 15.4026 110.618 14.7754 110.853 14.189C111.089 13.6027 111.439 13.0688 111.882 12.6183C112.325 12.1677 112.853 11.8094 113.435 11.5639C114.018 11.3184 114.643 11.1907 115.275 11.1882ZM115.275 19.6344C115.743 19.6332 116.205 19.5386 116.636 19.356C117.067 19.1734 117.457 18.9066 117.783 18.5712C118.109 18.2359 118.364 17.8387 118.535 17.4031C118.705 16.9674 118.787 16.5021 118.775 16.0345C118.811 15.554 118.748 15.0712 118.589 14.6162C118.43 14.1613 118.179 13.7441 117.851 13.3907C117.524 13.0373 117.127 12.7554 116.685 12.5626C116.243 12.3699 115.767 12.2703 115.285 12.2703C114.803 12.2703 114.326 12.3699 113.885 12.5626C113.443 12.7554 113.046 13.0373 112.718 13.3907C112.39 13.7441 112.139 14.1613 111.98 14.6162C111.821 15.0712 111.758 15.554 111.795 16.0345C111.783 16.5005 111.864 16.9641 112.033 17.3984C112.202 17.8328 112.456 18.229 112.78 18.5641C113.104 18.8992 113.491 19.1665 113.92 19.3502C114.348 19.534 114.809 19.6306 115.275 19.6344Z" fill="white"/>
<path d="M127.645 20.7313L123.347 13.6213V20.7313H122.07V11.2979H123.327L127.585 18.348V11.2979H128.861V20.7313H127.645Z" fill="white"/>
</g>
<defs>
<linearGradient id="paint0_linear_19134_32531" x1="50.0515" y1="32.1199" x2="11.2705" y2="32.1199" gradientUnits="userSpaceOnUse">
<stop stop-color="#FEE000"/>
<stop offset="0.42" stop-color="#FBBC0E"/>
<stop offset="0.78" stop-color="#FAA418"/>
<stop offset="1" stop-color="#F99B1C"/>
</linearGradient>
<linearGradient id="paint1_linear_19134_32531" x1="39.9884" y1="35.7998" x2="3.52089" y2="72.2673" gradientUnits="userSpaceOnUse">
<stop stop-color="#EF4547"/>
<stop offset="1" stop-color="#C6186D"/>
</linearGradient>
<linearGradient id="paint2_linear_19134_32531" x1="3.35003" y1="-8.18649" x2="33.1263" y2="21.5898" gradientUnits="userSpaceOnUse">
<stop stop-color="#279E6F"/>
<stop offset="0.04" stop-color="#2BA06F"/>
<stop offset="0.46" stop-color="#53B26C"/>
<stop offset="0.8" stop-color="#6BBD6A"/>
<stop offset="1" stop-color="#74C169"/>
</linearGradient>
<clipPath id="clip0_19134_32531">
<rect width="217" height="63.8704" fill="white"/>
</clipPath>
</defs>
</svg>
