<svg width="217" height="64" viewBox="0 0 217 64" fill="none" xmlns="http://www.w3.org/2000/svg">
<path d="M208.843 64H8.16704C6.00101 64 3.92369 63.1396 2.39207 61.6079C0.860454 60.0763 0 57.999 0 55.833L0 8.29662C0 6.13058 0.860454 4.05327 2.39207 2.52165C3.92369 0.990031 6.00101 0.129578 8.16704 0.129578H208.843C211.007 0.13222 213.082 0.99384 214.611 2.52517C216.141 4.0565 217 6.13231 217 8.29662V55.833C217 57.9973 216.141 60.0731 214.611 61.6044C213.082 63.1358 211.007 63.9974 208.843 64ZM8.16704 1.74504C6.42945 1.74504 4.76303 2.43529 3.53437 3.66395C2.30571 4.89261 1.61546 6.55903 1.61546 8.29662V55.833C1.61546 57.5715 2.30539 59.2389 3.53377 60.4692C4.76214 61.6994 6.42854 62.3919 8.16704 62.3945H208.843C210.581 62.3919 212.248 61.6994 213.476 60.4692C214.705 59.2389 215.394 57.5715 215.394 55.833V8.29662C215.394 6.55903 214.704 4.89261 213.476 3.66395C212.247 2.43529 210.58 1.74504 208.843 1.74504H8.16704Z" fill="#1E1E2A"/>
<path d="M109.473 35.0314C108.125 35.0354 106.808 35.4387 105.689 36.1906C104.57 36.9425 103.699 38.0091 103.185 39.2558C102.672 40.5025 102.54 41.8733 102.805 43.1951C103.071 44.5169 103.722 45.7304 104.677 46.6823C105.631 47.6342 106.847 48.2819 108.169 48.5434C109.492 48.805 110.862 48.6688 112.108 48.1519C113.353 47.6351 114.417 46.7608 115.165 45.6396C115.914 44.5184 116.314 43.2004 116.314 41.8522C116.327 40.9511 116.159 40.0564 115.82 39.2215C115.481 38.3865 114.977 37.6283 114.339 36.992C113.701 36.3556 112.941 35.8541 112.105 35.5173C111.269 35.1805 110.374 35.0153 109.473 35.0314ZM109.473 46.0006C108.642 46.0607 107.812 45.8691 107.091 45.4509C106.371 45.0327 105.793 44.4071 105.433 43.6558C105.073 42.9044 104.947 42.062 105.073 41.2384C105.198 40.4147 105.569 39.6479 106.136 39.0378C106.704 38.4277 107.442 38.0026 108.254 37.8179C109.066 37.6332 109.916 37.6974 110.691 38.0022C111.467 38.307 112.132 38.8382 112.601 39.5267C113.071 40.2152 113.322 41.029 113.322 41.8622C113.342 42.3869 113.258 42.9104 113.075 43.4027C112.893 43.8949 112.614 44.3463 112.257 44.7307C111.899 45.1152 111.469 45.4253 110.991 45.6432C110.514 45.8611 109.998 45.9826 109.473 46.0006ZM94.5148 35.0314C93.1666 35.0354 91.8499 35.4387 90.7308 36.1906C89.6118 36.9425 88.7406 38.0091 88.2274 39.2558C87.7142 40.5025 87.582 41.8733 87.8474 43.1951C88.1129 44.5169 88.7641 45.7304 89.7188 46.6823C90.6735 47.6342 91.8888 48.2819 93.2114 48.5434C94.534 48.805 95.9044 48.6688 97.1496 48.1519C98.3947 47.6351 99.4588 46.7608 100.207 45.6396C100.956 44.5184 101.356 43.2004 101.356 41.8522C101.369 40.9528 101.202 40.0598 100.864 39.2262C100.526 38.3926 100.024 37.6353 99.3878 36.9992C98.7517 36.3632 97.9944 35.8612 97.1608 35.5232C96.3272 35.1852 95.4342 35.018 94.5348 35.0314H94.5148ZM94.5148 46.0006C93.6838 46.0607 92.854 45.8691 92.1333 45.4509C91.4127 45.0327 90.8348 44.4071 90.4747 43.6558C90.1146 42.9044 89.9892 42.062 90.1146 41.2384C90.2401 40.4147 90.6107 39.6479 91.1781 39.0378C91.7456 38.4277 92.4836 38.0026 93.296 37.8179C94.1085 37.6332 94.9577 37.6974 95.7332 38.0022C96.5086 38.307 97.1743 38.8382 97.6435 39.5267C98.1128 40.2152 98.3638 41.029 98.364 41.8622C98.4045 42.9186 98.0239 43.9479 97.3059 44.7239C96.5878 45.4999 95.5912 45.9591 94.5348 46.0006H94.5148ZM76.7847 37.1554V40.0174H83.7052C83.6045 41.3734 83.0494 42.6557 82.1296 43.6572C81.4391 44.3704 80.6066 44.9306 79.6859 45.3017C78.7651 45.6727 77.7767 45.8463 76.7847 45.8111C74.7429 45.8111 72.7848 45 71.3411 43.5563C69.8974 42.1126 69.0863 40.1545 69.0863 38.1128C69.0863 36.071 69.8974 34.1129 71.3411 32.6692C72.7848 31.2255 74.7429 30.4144 76.7847 30.4144C78.7274 30.387 80.6022 31.129 82 32.4786L84.0443 30.4842C83.0938 29.5294 81.9618 28.7745 80.715 28.2642C79.4682 27.7538 78.1318 27.4982 76.7847 27.5126C75.3659 27.469 73.9529 27.7109 72.6294 28.2237C71.3059 28.7366 70.0989 29.5101 69.0799 30.4982C68.061 31.4864 67.2509 32.6691 66.6977 33.9763C66.1444 35.2834 65.8594 36.6884 65.8594 38.1078C65.8594 39.5272 66.1444 40.9321 66.6977 42.2393C67.2509 43.5464 68.061 44.7292 69.0799 45.7173C70.0989 46.7055 71.3059 47.4789 72.6294 47.9918C73.9529 48.5047 75.3659 48.7465 76.7847 48.703C78.1579 48.7561 79.5268 48.5168 80.8007 48.0011C82.0746 47.4854 83.2243 46.7049 84.1739 45.7114C85.8617 43.8686 86.7602 41.4379 86.6768 38.9404C86.683 38.3355 86.6329 37.7312 86.5273 37.1355L76.7847 37.1554ZM149.45 39.3991C149.044 38.1566 148.263 37.07 147.215 36.2881C146.168 35.5063 144.904 35.0673 143.597 35.0314C142.721 35.037 141.854 35.2201 141.051 35.5699C140.247 35.9196 139.523 36.4286 138.922 37.0662C138.321 37.7037 137.855 38.4566 137.553 39.2792C137.251 40.1018 137.119 40.9771 137.165 41.8522C137.146 42.7489 137.308 43.6402 137.641 44.473C137.974 45.3057 138.471 46.0629 139.103 46.6994C139.735 47.3359 140.488 47.8387 141.319 48.1778C142.149 48.5169 143.039 48.6853 143.936 48.6731C145.057 48.6831 146.163 48.415 147.155 47.893C148.147 47.3709 148.994 46.6111 149.62 45.6815L147.296 44.1259C146.948 44.7053 146.455 45.1845 145.866 45.5166C145.277 45.8487 144.612 46.0223 143.936 46.0205C143.236 46.0512 142.544 45.8695 141.949 45.4993C141.355 45.1292 140.886 44.5878 140.605 43.9464L149.73 40.177L149.45 39.3991ZM140.147 41.6727C140.113 41.1751 140.179 40.6757 140.341 40.204C140.503 39.7323 140.758 39.2978 141.091 38.9261C141.424 38.5544 141.827 38.253 142.278 38.0397C142.729 37.8264 143.218 37.7054 143.716 37.684C144.234 37.6511 144.749 37.7706 145.2 38.0276C145.65 38.2845 146.015 38.6678 146.249 39.1299L140.147 41.6727ZM132.737 48.2941H135.729V28.2405H132.737V48.2941ZM127.821 36.587H127.721C127.267 36.0914 126.711 35.6989 126.092 35.4357C125.472 35.1726 124.804 35.0449 124.132 35.0613C122.386 35.1557 120.744 35.9155 119.542 37.1843C118.34 38.4531 117.67 40.1344 117.67 41.8822C117.67 43.6299 118.34 45.3112 119.542 46.58C120.744 47.8488 122.386 48.6086 124.132 48.703C124.806 48.7209 125.477 48.5919 126.097 48.325C126.716 48.0581 127.271 47.6597 127.721 47.1573H127.821V48.1545C127.821 50.7672 126.425 52.1433 124.181 52.1433C123.431 52.1251 122.703 51.884 122.091 51.4507C121.478 51.0174 121.008 50.4115 120.741 49.7102L118.138 50.7971C118.636 51.987 119.476 53.0019 120.552 53.7123C121.628 54.4227 122.892 54.7964 124.181 54.7859C127.692 54.7859 130.663 52.7217 130.663 47.6858V35.4702H127.821V36.587ZM124.371 46.0006C123.85 45.9866 123.336 45.8685 122.861 45.6532C122.387 45.438 121.959 45.1298 121.605 44.747C121.251 44.3641 120.978 43.9143 120.8 43.424C120.622 42.9337 120.545 42.4129 120.572 41.8921C120.523 40.8356 120.896 39.803 121.608 39.0213C122.321 38.2397 123.314 37.773 124.371 37.7238C126.365 37.7238 128.011 39.4889 128.011 41.8921C128.05 42.4027 127.986 42.9159 127.823 43.4013C127.66 43.8867 127.401 44.3344 127.061 44.7177C126.722 45.101 126.309 45.412 125.846 45.6324C125.384 45.8528 124.882 45.978 124.371 46.0006ZM163.471 28.2206H156.301V48.2941H159.293V40.6955H163.471C164.31 40.7291 165.147 40.5928 165.931 40.295C166.716 39.9972 167.433 39.5439 168.038 38.9623C168.644 38.3807 169.125 37.6828 169.454 36.9105C169.783 36.1382 169.953 35.3074 169.953 34.468C169.953 33.6286 169.783 32.7978 169.454 32.0255C169.125 31.2532 168.644 30.5553 168.038 29.9737C167.433 29.3921 166.716 28.9388 165.931 28.641C165.147 28.3432 164.31 28.2069 163.471 28.2405V28.2206ZM163.551 37.8834H159.293V31.0426H163.541C164.007 31.0175 164.474 31.0877 164.913 31.249C165.352 31.4102 165.753 31.6592 166.092 31.9807C166.431 32.3022 166.702 32.6894 166.886 33.1188C167.071 33.5481 167.166 34.0106 167.166 34.478C167.166 34.9454 167.071 35.4078 166.886 35.8372C166.702 36.2666 166.431 36.6538 166.092 36.9753C165.753 37.2967 165.352 37.5457 164.913 37.707C164.474 37.8683 164.007 37.9385 163.541 37.9133L163.551 37.8834ZM182.039 35.0314C180.947 34.9681 179.861 35.2251 178.913 35.7707C177.965 36.3163 177.197 37.1269 176.704 38.1028L179.356 39.2097C179.622 38.7253 180.022 38.3288 180.509 38.0684C180.996 37.8081 181.549 37.6953 182.099 37.7438C183.644 37.7438 185.22 38.6712 185.24 40.3265V40.526C184.278 40.0168 183.206 39.753 182.119 39.7581C179.257 39.7581 176.345 41.3237 176.345 44.2655C176.345 46.9479 178.688 48.683 181.331 48.683C182.088 48.7235 182.842 48.5597 183.513 48.2088C184.185 47.858 184.751 47.3329 185.15 46.6886H185.25V48.2343H188.142V40.5659C188.132 37.0258 185.479 35.0314 182.039 35.0314ZM181.68 46.0006C180.683 46.0006 179.336 45.512 179.336 44.2954C179.336 42.7497 181.042 42.1614 182.507 42.1614C183.462 42.1337 184.406 42.3645 185.24 42.8295C185.131 43.6996 184.71 44.5007 184.056 45.0839C183.401 45.6671 182.557 45.9928 181.68 46.0006ZM198.632 35.4502L195.202 44.1458H195.102L191.542 35.4502H188.321L193.656 47.6061L190.615 54.3571H193.736L201.963 35.4104L198.632 35.4502ZM171.708 48.2842H174.699V28.2405H171.708V48.2842Z" fill="#1E1E2A"/>
<path d="M16.9509 12.2755C16.4272 12.9055 16.1634 13.7114 16.2129 14.5291V49.9894C16.1645 50.8009 16.4285 51.6002 16.9509 52.2232L17.0705 52.3428L36.8948 32.4886V32.0399L17.0406 12.1658L16.9509 12.2755Z" fill="#5BC9F4"/>
<path d="M43.5198 39.11L36.8984 32.4886V32.0398L43.5198 25.4185L43.6694 25.4982L51.5074 29.9557C53.7511 31.2321 53.7511 33.3163 51.5074 34.5827L43.6694 39.0202L43.5198 39.11Z" fill="url(#paint0_linear_19134_32161)"/>
<path d="M43.668 39.0203L36.8971 32.2493L16.9531 52.1933C17.6911 52.9711 18.9475 53.0708 20.2838 52.293L43.668 39.0203Z" fill="url(#paint1_linear_19134_32161)"/>
<path d="M43.6667 25.4784L20.2525 12.1758C18.8764 11.398 17.6598 11.4977 16.9219 12.2755L36.8658 32.2194L43.6667 25.4784Z" fill="url(#paint2_linear_19134_32161)"/>
<path d="M73.724 13.4123C73.0962 12.8561 72.2891 12.5446 71.4504 12.5348C70.9816 12.5412 70.5188 12.6405 70.0886 12.8268C69.6584 13.0131 69.2693 13.2828 68.9439 13.6202C68.6185 13.9577 68.3631 14.3563 68.1926 14.793C68.022 15.2297 67.9397 15.6959 67.9502 16.1645C67.9383 16.6331 68.0198 17.0994 68.19 17.5361C68.3602 17.9728 68.6156 18.3713 68.9414 18.7083C69.2673 19.0452 69.6569 19.3139 70.0877 19.4987C70.5184 19.6834 70.9817 19.7806 71.4504 19.7844C71.8155 19.8185 72.1837 19.779 72.5332 19.6683C72.8828 19.5577 73.2066 19.378 73.4855 19.14C73.7644 18.902 73.9928 18.6105 74.1571 18.2827C74.3214 17.9549 74.4182 17.5974 74.442 17.2315H71.7994V16.0848H75.9278C75.9278 19.3955 74.1628 20.9611 71.4703 20.9611C70.2243 20.9045 69.0481 20.3697 68.1864 19.468C67.3246 18.5662 66.8438 17.367 66.8438 16.1197C66.8438 14.8724 67.3246 13.6731 68.1864 12.7714C69.0481 11.8696 70.2243 11.3349 71.4703 11.2783C72.6536 11.2742 73.7942 11.7198 74.6614 12.5248L73.724 13.4123Z" fill="#1E1E2A"/>
<path d="M83.2366 11.4277V12.6144H78.9288V15.606H82.6882V16.8026H78.9288V19.6746H83.3762V20.8612H77.6523V11.4277H83.2366Z" fill="#1E1E2A"/>
<path d="M91.4947 11.4277V12.6343H88.6327V20.8612H87.3463V12.6343H84.4844V11.4277H91.4947Z" fill="#1E1E2A"/>
<path d="M97.6045 11.4277V20.8612H96.3281V11.4277H97.6045Z" fill="#1E1E2A"/>
<path d="M106.292 11.4277V12.6343H103.43V20.8612H102.143V12.6343H99.2812V11.4277H106.292Z" fill="#1E1E2A"/>
<path d="M115.275 11.3181C116.237 11.3023 117.181 11.573 117.989 12.0958C118.796 12.6186 119.43 13.3699 119.809 14.2539C120.188 15.138 120.295 16.1148 120.117 17.0601C119.939 18.0054 119.484 18.8764 118.81 19.5622C118.135 20.2479 117.272 20.7175 116.33 20.9111C115.388 21.1046 114.409 21.0134 113.519 20.6491C112.629 20.2847 111.867 19.6637 111.331 18.8651C110.795 18.0665 110.508 17.1264 110.508 16.1645C110.5 15.5326 110.618 14.9053 110.853 14.319C111.089 13.7326 111.439 13.1988 111.882 12.7482C112.325 12.2976 112.853 11.9393 113.435 11.6938C114.018 11.4484 114.643 11.3207 115.275 11.3181ZM115.275 19.7644C115.743 19.7632 116.205 19.6685 116.636 19.4859C117.067 19.3034 117.457 19.0365 117.783 18.7012C118.109 18.3658 118.364 17.9686 118.535 17.533C118.705 17.0974 118.787 16.6321 118.775 16.1645C118.811 15.684 118.748 15.2011 118.589 14.7462C118.43 14.2912 118.179 13.874 117.851 13.5206C117.524 13.1673 117.127 12.8854 116.685 12.6926C116.243 12.4998 115.767 12.4003 115.285 12.4003C114.803 12.4003 114.326 12.4998 113.885 12.6926C113.443 12.8854 113.046 13.1673 112.718 13.5206C112.39 13.874 112.139 14.2912 111.98 14.7462C111.821 15.2011 111.758 15.684 111.795 16.1645C111.783 16.6304 111.864 17.0941 112.033 17.5284C112.202 17.9627 112.456 18.359 112.78 18.6941C113.104 19.0292 113.491 19.2964 113.92 19.4802C114.348 19.6639 114.809 19.7605 115.275 19.7644Z" fill="#1E1E2A"/>
<path d="M127.645 20.8612L123.347 13.7512V20.8612H122.07V11.4277H123.327L127.585 18.4779V11.4277H128.861V20.8612H127.645Z" fill="#1E1E2A"/>
<defs>
<linearGradient id="paint0_linear_19134_32161" x1="50.0515" y1="32.2493" x2="11.2705" y2="32.2493" gradientUnits="userSpaceOnUse">
<stop stop-color="#FEE000"/>
<stop offset="0.42" stop-color="#FBBC0E"/>
<stop offset="0.78" stop-color="#FAA418"/>
<stop offset="1" stop-color="#F99B1C"/>
</linearGradient>
<linearGradient id="paint1_linear_19134_32161" x1="39.9884" y1="35.929" x2="3.52089" y2="72.3965" gradientUnits="userSpaceOnUse">
<stop stop-color="#EF4547"/>
<stop offset="1" stop-color="#C6186D"/>
</linearGradient>
<linearGradient id="paint2_linear_19134_32161" x1="3.35003" y1="-8.05734" x2="33.1263" y2="21.719" gradientUnits="userSpaceOnUse">
<stop stop-color="#279E6F"/>
<stop offset="0.04" stop-color="#2BA06F"/>
<stop offset="0.46" stop-color="#53B26C"/>
<stop offset="0.8" stop-color="#6BBD6A"/>
<stop offset="1" stop-color="#74C169"/>
</linearGradient>
</defs>
</svg>
