<svg width="38" height="37" viewBox="0 0 38 37" fill="none" xmlns="http://www.w3.org/2000/svg">
<g clip-path="url(#clip0_19134_32549)">
<path d="M14.9427 15.4167C19.1999 15.4167 22.651 11.9655 22.651 7.70833C22.651 3.45114 19.1999 0 14.9427 0C10.6855 0 7.23438 3.45114 7.23438 7.70833C7.23438 11.9655 10.6855 15.4167 14.9427 15.4167Z" fill="#DE5F28" fill-opacity="0.4"/>
<path d="M29.4271 27.6462C33.6843 27.6462 37.1354 24.195 37.1354 19.9378C37.1354 15.6806 33.6843 12.2295 29.4271 12.2295C25.1699 12.2295 21.7188 15.6806 21.7188 19.9378C21.7188 24.195 25.1699 27.6462 29.4271 27.6462Z" fill="#DE5F28" fill-opacity="0.12"/>
<path d="M11.2904 33.9167C15.5476 33.9167 18.9987 30.4655 18.9987 26.2083C18.9987 21.9511 15.5476 18.5 11.2904 18.5C7.03317 18.5 3.58203 21.9511 3.58203 26.2083C3.58203 30.4655 7.03317 33.9167 11.2904 33.9167Z" fill="#DE5F28"/>
</g>
<defs>
<clipPath id="clip0_19134_32549">
<rect width="37" height="37" fill="white" transform="translate(0.5)"/>
</clipPath>
</defs>
</svg>
