<svg width="38" height="37" viewBox="0 0 38 37" fill="none" xmlns="http://www.w3.org/2000/svg">
<g clip-path="url(#clip0_19134_32569)">
<path d="M32.3178 23.5439C31.8182 24.137 31.1951 24.6138 30.492 24.9409C29.7889 25.2679 29.0228 25.4374 28.2474 25.4374C27.4719 25.4374 26.7059 25.2679 26.0028 24.9409C25.2997 24.6138 24.6765 24.137 24.177 23.5439C23.067 24.2321 22.1505 25.1917 21.514 26.3322C20.8776 27.4726 20.542 28.7564 20.5391 30.0624C20.5391 30.4713 20.7015 30.8634 20.9906 31.1526C21.2797 31.4417 21.6719 31.6041 22.0807 31.6041H34.4141C34.8229 31.6041 35.2151 31.4417 35.5042 31.1526C35.7933 30.8634 35.9557 30.4713 35.9557 30.0624C35.9528 28.7564 35.6172 27.4726 34.9807 26.3322C34.3443 25.1917 33.4278 24.2321 32.3178 23.5439Z" fill="#DE5F28"/>
<path d="M27.03 8.93085L23.9467 5.84751C23.6567 5.56275 23.266 5.40402 22.8596 5.40586C22.4532 5.4077 22.064 5.56996 21.7766 5.85734C21.4892 6.14472 21.327 6.53395 21.3251 6.94036C21.3233 7.34677 21.482 7.73746 21.7668 8.02743L22.2185 8.47914H15.7867L16.2384 8.02743C16.5245 7.73772 16.6844 7.34659 16.6831 6.93945C16.6818 6.5323 16.5195 6.1422 16.2316 5.8543C15.9437 5.56641 15.5536 5.40411 15.1464 5.40284C14.7393 5.40157 14.3481 5.56142 14.0584 5.84751L10.9751 8.93085C10.8319 9.07396 10.7183 9.24388 10.6408 9.43091C10.5633 9.61794 10.5234 9.8184 10.5234 10.0208C10.5234 10.2233 10.5633 10.4238 10.6408 10.6108C10.7183 10.7978 10.8319 10.9677 10.9751 11.1109L14.0584 14.1942C14.3481 14.4803 14.7393 14.6401 15.1464 14.6388C15.5536 14.6375 15.9437 14.4752 16.2316 14.1873C16.5195 13.8994 16.6818 13.5093 16.683 13.1021C16.6843 12.695 16.5244 12.3039 16.2384 12.0142L15.7866 11.5625H22.2183L21.7666 12.0142C21.4775 12.3033 21.3151 12.6954 21.3151 13.1042C21.3152 13.513 21.4776 13.9051 21.7667 14.1942C22.0558 14.4833 22.4479 14.6457 22.8567 14.6456C23.2655 14.6456 23.6576 14.4832 23.9467 14.1941L27.03 11.1108C27.1732 10.9676 27.2868 10.7977 27.3643 10.6107C27.4418 10.4237 27.4816 10.2232 27.4816 10.0208C27.4816 9.81837 27.4418 9.61791 27.3643 9.43089C27.2868 9.24388 27.1732 9.07396 27.03 8.93085Z" fill="#DE5F28"/>
<path d="M14.3447 22.6943L13.6099 22.2387L13.0529 22.9C12.6473 23.3816 12.1412 23.7688 11.5702 24.0344C10.9993 24.3 10.3771 24.4376 9.7474 24.4376C9.11766 24.4376 8.49553 24.3 7.92455 24.0344C7.35357 23.7688 6.84753 23.3816 6.44184 22.9L5.88487 22.2387L5.15006 22.6943C3.8957 23.472 2.86008 24.5563 2.14083 25.8451C1.42158 27.1338 1.04241 28.5845 1.03906 30.0604V30.0627C1.03906 30.7368 1.30684 31.3832 1.7835 31.8599C2.26015 32.3366 2.90664 32.6043 3.58073 32.6043H15.9141C16.5882 32.6043 17.2346 32.3366 17.7113 31.8599C18.1879 31.3832 18.4557 30.7368 18.4557 30.0627L18.4557 30.0604C18.4524 28.5845 18.0732 27.1338 17.354 25.8451C16.6347 24.5563 15.5991 23.472 14.3447 22.6943ZM28.2474 26.4377L28.2486 26.4377C29.9439 26.4356 31.5692 25.7612 32.768 24.5625C33.9668 23.3637 34.6412 21.7384 34.6432 20.043V20.0418C34.6432 18.7769 34.2681 17.5403 33.5653 16.4885C32.8626 15.4367 31.8637 14.6169 30.695 14.1329C29.5263 13.6488 28.2403 13.5221 26.9996 13.7689C25.759 14.0157 24.6193 14.6248 23.7249 15.5193L24.4245 16.219L23.7249 15.5193C22.8304 16.4138 22.2212 17.5534 21.9745 18.7941C21.7277 20.0347 21.8543 21.3207 22.3384 22.4894C22.8225 23.6581 23.6423 24.657 24.6941 25.3598C25.7458 26.0626 26.9824 26.4377 28.2474 26.4377Z" fill="#DE5F28" fill-opacity="0.6" stroke="#FCF0EB" stroke-width="2"/>
<path d="M9.7474 26.4377L9.74861 26.4377C11.4439 26.4356 13.0692 25.7612 14.268 24.5625C15.4668 23.3637 16.1412 21.7384 16.1432 20.043V20.0418C16.1432 18.7769 15.7681 17.5403 15.0653 16.4885C14.3626 15.4367 13.3637 14.6169 12.195 14.1329C11.0263 13.6488 9.7403 13.5221 8.49963 13.7689C7.25896 14.0157 6.11933 14.6248 5.22486 15.5193C4.33039 16.4138 3.72124 17.5534 3.47446 18.7941C3.22767 20.0347 3.35433 21.3207 3.83842 22.4894C4.3225 23.6581 5.14227 24.657 6.19406 25.3598C7.24585 26.0626 8.48242 26.4377 9.7474 26.4377Z" fill="#DE5F28" fill-opacity="0.4" stroke="#FCF0EB" stroke-width="2"/>
</g>
<defs>
<clipPath id="clip0_19134_32569">
<rect width="37" height="37" fill="white" transform="translate(0.5)"/>
</clipPath>
</defs>
</svg>
