<svg width="20" height="21" viewBox="0 0 20 21" fill="none" xmlns="http://www.w3.org/2000/svg">
<path d="M10 0.606934C12.717 0.606934 13.056 0.616934 14.122 0.666934C15.187 0.716934 15.912 0.883934 16.55 1.13193C17.21 1.38593 17.766 1.72993 18.322 2.28493C18.8305 2.78483 19.224 3.38952 19.475 4.05693C19.722 4.69393 19.89 5.41993 19.94 6.48493C19.987 7.55093 20 7.88993 20 10.6069C20 13.3239 19.99 13.6629 19.94 14.7289C19.89 15.7939 19.722 16.5189 19.475 17.1569C19.2247 17.8247 18.8311 18.4296 18.322 18.9289C17.822 19.4373 17.2173 19.8307 16.55 20.0819C15.913 20.3289 15.187 20.4969 14.122 20.5469C13.056 20.5939 12.717 20.6069 10 20.6069C7.283 20.6069 6.944 20.5969 5.878 20.5469C4.813 20.4969 4.088 20.3289 3.45 20.0819C2.78233 19.8314 2.17753 19.4379 1.678 18.9289C1.16941 18.4291 0.775931 17.8244 0.525 17.1569C0.277 16.5199 0.11 15.7939 0.0599999 14.7289C0.0129999 13.6629 0 13.3239 0 10.6069C0 7.88993 0.00999994 7.55093 0.0599999 6.48493C0.11 5.41893 0.277 4.69493 0.525 4.05693C0.775236 3.38911 1.1688 2.78425 1.678 2.28493C2.17767 1.77616 2.78243 1.38266 3.45 1.13193C4.088 0.883934 4.812 0.716934 5.878 0.666934C6.944 0.619934 7.283 0.606934 10 0.606934ZM10 5.60693C8.67392 5.60693 7.40215 6.13372 6.46447 7.0714C5.52678 8.00908 5 9.28085 5 10.6069C5 11.933 5.52678 13.2048 6.46447 14.1425C7.40215 15.0801 8.67392 15.6069 10 15.6069C11.3261 15.6069 12.5979 15.0801 13.5355 14.1425C14.4732 13.2048 15 11.933 15 10.6069C15 9.28085 14.4732 8.00908 13.5355 7.0714C12.5979 6.13372 11.3261 5.60693 10 5.60693ZM16.5 5.35693C16.5 5.02541 16.3683 4.70747 16.1339 4.47305C15.8995 4.23863 15.5815 4.10693 15.25 4.10693C14.9185 4.10693 14.6005 4.23863 14.3661 4.47305C14.1317 4.70747 14 5.02541 14 5.35693C14 5.68845 14.1317 6.0064 14.3661 6.24082C14.6005 6.47524 14.9185 6.60693 15.25 6.60693C15.5815 6.60693 15.8995 6.47524 16.1339 6.24082C16.3683 6.0064 16.5 5.68845 16.5 5.35693ZM10 7.60693C10.7956 7.60693 11.5587 7.923 12.1213 8.48561C12.6839 9.04822 13 9.81128 13 10.6069C13 11.4026 12.6839 12.1656 12.1213 12.7283C11.5587 13.2909 10.7956 13.6069 10 13.6069C9.20435 13.6069 8.44129 13.2909 7.87868 12.7283C7.31607 12.1656 7 11.4026 7 10.6069C7 9.81128 7.31607 9.04822 7.87868 8.48561C8.44129 7.923 9.20435 7.60693 10 7.60693Z" fill="black" fill-opacity="0.5"/>
</svg>
