<svg width="121" height="25" viewBox="0 0 121 25" fill="none" xmlns="http://www.w3.org/2000/svg">
<path opacity="0.5" fill-rule="evenodd" clip-rule="evenodd" d="M12.0664 0C14.3922 0 16.5644 0.662873 18.4068 1.8113C18.4908 1.86366 18.5839 1.92486 18.686 1.99491L18.7911 2.06792C19.3377 2.45184 19.4719 3.20945 19.0908 3.7601L19.06 3.80253C18.778 4.17466 18.5578 4.48792 18.3995 4.74232C17.0624 6.89089 16.2896 9.43181 16.2896 12.1546C16.2896 14.8759 17.0616 17.4155 18.3971 19.5635C18.5331 19.7822 18.7148 20.0444 18.9421 20.3501L19.0595 20.5065C19.4638 21.0401 19.3621 21.8029 18.8324 22.2101L18.7906 22.2408C18.6383 22.3479 18.5033 22.4379 18.3858 22.5108C16.5481 23.6512 14.3835 24.3091 12.0664 24.3091C5.40229 24.3091 0 18.8673 0 12.1546C0 5.44178 5.40229 0 12.0664 0Z" fill="#DE5F28"/>
<path fill-rule="evenodd" clip-rule="evenodd" d="M30.164 24.3091C36.8281 24.3091 42.2304 18.8673 42.2304 12.1546C42.2304 5.44178 36.8281 0 30.164 0C23.5 0 18.0977 5.44178 18.0977 12.1546C18.0977 18.8673 23.5 24.3091 30.164 24.3091Z" fill="#DE5F28"/>
<path fill-rule="evenodd" clip-rule="evenodd" d="M54.4734 11.2447H52.75V9.91242H54.4734V9.36741C54.4734 8.25047 54.6671 7.41951 55.0545 6.8745C55.4419 6.32949 55.8594 5.99307 56.3069 5.86522C56.7545 5.73738 57.2187 5.67346 57.6996 5.67346C58.0603 5.67346 58.381 5.71383 58.6615 5.79457V7.08645C58.3943 7.03262 58.1539 7.0057 57.9401 7.0057C57.5126 7.0057 57.1653 7.04607 56.8981 7.12682C56.6309 7.20756 56.4004 7.41614 56.2067 7.75257C56.013 8.08899 55.9162 8.62054 55.9162 9.34722V9.91242H58.6615V11.2447H55.9162V19.985H54.4734V11.2447ZM61.0664 10.7202C61.5741 10.5049 62.2454 10.2862 63.0803 10.0642C63.9153 9.84215 64.7803 9.73113 65.6754 9.73113C65.809 9.73113 66.0227 9.7715 66.3166 9.85225V11.1441C65.996 11.1037 65.6754 11.0836 65.3548 11.0836C64.9139 11.0836 64.5064 11.1105 64.1324 11.1643C63.7583 11.2181 63.2173 11.3056 62.5092 11.4267V19.9854H61.0664V10.7202ZM77.1371 9.91282L72.8487 20.9745C72.4346 22.051 71.9503 22.8046 71.3959 23.2352C70.8415 23.6659 70.2771 23.8812 69.7026 23.8812C69.382 23.8812 69.068 23.8206 68.7608 23.6995V22.3673C69.028 22.4884 69.3152 22.5489 69.6225 22.5489C70.1969 22.5489 70.6444 22.3404 70.9651 21.9232C71.2857 21.506 71.5863 20.8735 71.8668 20.0258L67.7188 9.91282H69.362L72.5281 18.1283L75.6943 9.91282H77.1371ZM83.33 9.73113C84.8529 9.73113 85.9684 10.229 86.6765 11.2249C87.3845 12.2207 87.7252 13.5462 87.6985 15.2014H80.4043C80.4043 16.4125 80.6848 17.3411 81.2459 17.987C81.807 18.6329 82.6085 18.9559 83.6506 18.9559C84.9865 18.9559 86.1287 18.6666 87.0772 18.0879V19.5817C86.102 20.0526 84.9331 20.2881 83.5704 20.2881C82.1142 20.2881 80.9787 19.834 80.1638 18.9256C79.3489 18.0173 78.9414 16.6884 78.9414 14.939C78.9414 13.2299 79.3255 11.9347 80.0937 11.0533C80.8618 10.1718 81.9406 9.73113 83.33 9.73113ZM83.3343 11.0631C82.4526 11.0631 81.7846 11.2683 81.3304 11.6788C80.8762 12.0892 80.589 12.8192 80.4688 13.8689H86.1799C86.1131 12.9269 85.8492 12.2238 85.3883 11.7595C84.9274 11.2952 84.2428 11.0631 83.3343 11.0631ZM90.4062 10.7202C91.7021 10.0608 93.1115 9.73113 94.6345 9.73113C96.0372 9.73113 97.0492 10.0406 97.6704 10.6597C98.2916 11.2787 98.6022 12.2005 98.6022 13.4251V19.9854H97.1594V13.4251C97.1594 11.8371 96.2643 11.0432 94.4742 11.0432C93.6459 11.0432 92.7709 11.1778 91.8491 11.4469V19.9854H90.4062V10.7202ZM110.002 5.65343V18.2492C110.002 18.9355 109.571 19.4468 108.709 19.7833C107.847 20.1197 106.909 20.2879 105.894 20.2879C104.665 20.2879 103.596 19.8876 102.687 19.0869C101.779 18.2862 101.318 16.8631 101.305 14.8176C101.305 13.2297 101.689 11.9883 102.457 11.0934C103.225 10.1985 104.364 9.75108 105.874 9.75108C106.221 9.75108 106.652 9.80827 107.166 9.92266C107.68 10.037 108.145 10.175 108.559 10.3365V5.65343H110.002ZM108.559 11.7896C108.158 11.5609 107.721 11.3859 107.247 11.2648C106.772 11.1437 106.315 11.0831 105.874 11.0831C104.832 11.0831 104.064 11.4162 103.57 12.0823C103.075 12.7485 102.828 13.6602 102.828 14.8175C102.828 16.0824 103.055 17.0883 103.509 17.8352C103.964 18.5821 104.785 18.9555 105.974 18.9555C106.682 18.9555 107.29 18.8747 107.798 18.7133C108.305 18.5518 108.559 18.3499 108.559 18.1077V11.7896ZM116.034 20.2881C115.352 20.2881 114.771 20.2209 114.29 20.0863C113.809 19.9517 113.281 19.7364 112.707 19.4404V17.9063C113.388 18.2965 113.946 18.569 114.38 18.7238C114.814 18.8785 115.332 18.9559 115.933 18.9559C116.601 18.9559 117.146 18.8079 117.566 18.5118C117.987 18.2158 118.198 17.8322 118.198 17.3612C118.198 16.9441 118.071 16.6312 117.817 16.4226C117.563 16.214 117.162 16.0021 116.615 15.7868L116.094 15.5647C115.332 15.3494 114.741 15.1543 114.32 14.9794C113.899 14.8044 113.532 14.5286 113.218 14.1518C112.904 13.775 112.747 13.2636 112.747 12.6177C112.747 11.9717 112.914 11.4334 113.248 11.0028C113.582 10.5722 114.016 10.2526 114.551 10.044C115.085 9.83542 115.646 9.73113 116.234 9.73113C116.768 9.73113 117.219 9.79169 117.587 9.9128C117.954 10.0339 118.458 10.2358 119.099 10.5184V11.9717C118.432 11.6353 117.921 11.3998 117.566 11.2652C117.212 11.1307 116.795 11.0634 116.314 11.0634C115.726 11.0634 115.225 11.1811 114.811 11.4166C114.397 11.6521 114.19 11.9852 114.19 12.4158C114.19 12.7657 114.293 13.0516 114.501 13.2737C114.708 13.4957 114.968 13.6707 115.282 13.7985C115.596 13.9264 116.02 14.0643 116.555 14.2123C117.222 14.4276 117.754 14.6227 118.148 14.7977C118.542 14.9726 118.889 15.2519 119.19 15.6354C119.49 16.0189 119.641 16.5336 119.641 17.1796C119.641 17.8659 119.467 18.4412 119.12 18.9054C118.772 19.3697 118.321 19.7162 117.767 19.945C117.212 20.1738 116.635 20.2881 116.034 20.2881Z" fill="#DE5F28"/>
<path d="M54.4734 11.2447H55.2734V10.4447H54.4734V11.2447ZM52.75 11.2447H51.95V12.0447H52.75V11.2447ZM52.75 9.91242V9.11242H51.95V9.91242H52.75ZM54.4734 9.91242V10.7124H55.2734V9.91242H54.4734ZM58.6615 5.79457H59.4615V5.19234L58.8828 5.02578L58.6615 5.79457ZM58.6615 7.08645L58.5035 7.87069L59.4615 8.06369V7.08645H58.6615ZM55.9162 9.91242H55.1162V10.7124H55.9162V9.91242ZM58.6615 9.91242H59.4615V9.11242H58.6615V9.91242ZM58.6615 11.2447V12.0447H59.4615V11.2447H58.6615ZM55.9162 11.2447V10.4447H55.1162V11.2447H55.9162ZM55.9162 19.985V20.785H56.7162V19.985H55.9162ZM54.4734 19.985H53.6734V20.785H54.4734V19.985ZM61.0664 10.7202L60.754 9.98373L60.2664 10.1905V10.7202H61.0664ZM66.3166 9.85225H67.1166V9.24238L66.5286 9.08083L66.3166 9.85225ZM66.3166 11.1441L66.2167 11.9378L67.1166 12.0512V11.1441H66.3166ZM62.5092 11.4267L62.3743 10.6382L61.7092 10.7519V11.4267H62.5092ZM62.5092 19.9854V20.7854H63.3092V19.9854H62.5092ZM61.0664 19.9854H60.2664V20.7854H61.0664V19.9854ZM77.1371 9.91282L77.883 10.202L78.3053 9.11282H77.1371V9.91282ZM72.8487 20.9745L72.1028 20.6853L72.1021 20.6872L72.8487 20.9745ZM68.7608 23.6995H67.9608V24.2441L68.4674 24.4438L68.7608 23.6995ZM68.7608 22.3673L69.0911 21.6386L67.9608 21.1263V22.3673H68.7608ZM71.8668 20.0258L72.6263 20.2771L72.7193 19.996L72.607 19.7222L71.8668 20.0258ZM67.7188 9.91282V9.11282H66.5259L66.9786 10.2164L67.7188 9.91282ZM69.362 9.91282L70.1084 9.62513L69.911 9.11282H69.362V9.91282ZM72.5281 18.1283L71.7816 18.416L72.5281 20.353L73.2746 18.416L72.5281 18.1283ZM75.6943 9.91282V9.11282H75.1452L74.9478 9.62513L75.6943 9.91282ZM87.6985 15.2014V16.0014H88.4856L88.4984 15.2143L87.6985 15.2014ZM80.4043 15.2014V14.4014H79.6043V15.2014H80.4043ZM87.0773 18.0879H87.8773V16.6628L86.6606 17.405L87.0773 18.0879ZM87.0773 19.5817L87.4252 20.302L87.8773 20.0837V19.5817H87.0773ZM80.4688 13.8689L79.6739 13.7778L79.5719 14.6689H80.4688V13.8689ZM86.1799 13.8689V14.6689H87.0386L86.9779 13.8123L86.1799 13.8689ZM90.4062 10.7202L90.0434 10.0072L89.6063 10.2297V10.7202H90.4062ZM98.6022 19.9854V20.7854H99.4022V19.9854H98.6022ZM97.1594 19.9854H96.3594V20.7854H97.1594V19.9854ZM91.8491 11.4469L91.6248 10.679L91.0491 10.8471V11.4469H91.8491ZM91.8491 19.9854V20.7854H92.6491V19.9854H91.8491ZM90.4062 19.9854H89.6063V20.7854H90.4062V19.9854ZM110.002 5.65343H110.802V4.85343H110.002V5.65343ZM101.305 14.8176H100.505L100.505 14.8229L101.305 14.8176ZM108.559 10.3365L108.268 11.0818L109.359 11.5071V10.3365H108.559ZM108.559 5.65343V4.85343H107.759V5.65343H108.559ZM108.559 11.7896H109.359V11.3251L108.956 11.0949L108.559 11.7896ZM112.707 19.4404H111.907V19.9281L112.341 20.1515L112.707 19.4404ZM112.707 17.9063L113.105 17.2121L111.907 16.5261V17.9063H112.707ZM116.615 15.7868L116.301 16.5227L116.311 16.5272L116.322 16.5313L116.615 15.7868ZM116.094 15.5647L116.407 14.8288L116.36 14.8088L116.311 14.7949L116.094 15.5647ZM119.099 10.5184H119.899V9.99668L119.422 9.7863L119.099 10.5184ZM119.099 11.9717L118.74 12.6862L119.899 13.2704V11.9717H119.099ZM116.555 14.2123L116.8 13.4509L116.784 13.4458L116.768 13.4413L116.555 14.2123ZM54.4734 10.4447H52.75V12.0447H54.4734V10.4447ZM53.55 11.2447V9.91242H51.95V11.2447H53.55ZM52.75 10.7124H54.4734V9.11242H52.75V10.7124ZM55.2734 9.91242V9.36741H53.6734V9.91242H55.2734ZM55.2734 9.36741C55.2734 8.31594 55.4607 7.68386 55.7065 7.33801L54.4024 6.41099C53.8735 7.15516 53.6734 8.185 53.6734 9.36741H55.2734ZM55.7065 7.33801C56.0335 6.87806 56.3158 6.69468 56.5267 6.63446L56.0872 5.09599C55.403 5.29145 54.8503 5.78091 54.4024 6.41099L55.7065 7.33801ZM56.5267 6.63446C56.9004 6.5277 57.2905 6.47346 57.6996 6.47346V4.87346C57.1469 4.87346 56.6086 4.94706 56.0872 5.09599L56.5267 6.63446ZM57.6996 6.47346C58.0023 6.47346 58.2462 6.50752 58.4403 6.56337L58.8828 5.02578C58.5157 4.92014 58.1183 4.87346 57.6996 4.87346V6.47346ZM57.8615 5.79457V7.08645H59.4615V5.79457H57.8615ZM58.8195 6.3022C58.5137 6.2406 58.2191 6.2057 57.9401 6.2057V7.8057C58.0887 7.8057 58.2749 7.82463 58.5035 7.87069L58.8195 6.3022ZM57.9401 6.2057C57.4712 6.2057 57.0376 6.24894 56.6667 6.36102L57.1295 7.89261C57.293 7.84321 57.554 7.8057 57.9401 7.8057V6.2057ZM56.6667 6.36102C56.1392 6.52041 55.7688 6.90996 55.5134 7.35338L56.9 8.15176C57.0321 7.92233 57.1226 7.89471 57.1295 7.89261L56.6667 6.36102ZM55.5134 7.35338C55.212 7.8769 55.1162 8.58328 55.1162 9.34722H56.7162C56.7162 8.6578 56.814 8.30109 56.9 8.15176L55.5134 7.35338ZM55.1162 9.34722V9.91242H56.7162V9.34722H55.1162ZM55.9162 10.7124H58.6615V9.11242H55.9162V10.7124ZM57.8615 9.91242V11.2447H59.4615V9.91242H57.8615ZM58.6615 10.4447H55.9162V12.0447H58.6615V10.4447ZM55.1162 11.2447V19.985H56.7162V11.2447H55.1162ZM55.9162 19.185H54.4734V20.785H55.9162V19.185ZM55.2734 19.985V11.2447H53.6734V19.985H55.2734ZM61.3788 11.4567C61.8381 11.2619 62.4695 11.0544 63.2859 10.8373L62.8747 9.29106C62.0213 9.51802 61.3101 9.7479 60.754 9.98373L61.3788 11.4567ZM63.2859 10.8373C64.0514 10.6338 64.8472 10.5311 65.6754 10.5311V8.93113C64.7134 8.93113 63.7792 9.05055 62.8747 9.29106L63.2859 10.8373ZM65.6754 10.5311C65.6713 10.5311 65.7031 10.5316 65.7874 10.5475C65.8664 10.5624 65.9711 10.587 66.1047 10.6237L66.5286 9.08083C66.2308 8.99904 65.9261 8.93113 65.6754 8.93113V10.5311ZM65.5166 9.85225V11.1441H67.1166V9.85225H65.5166ZM66.4166 10.3504C66.0631 10.3059 65.7091 10.2836 65.3548 10.2836V11.8836C65.6417 11.8836 65.929 11.9016 66.2167 11.9378L66.4166 10.3504ZM65.3548 10.2836C64.8819 10.2836 64.4358 10.3124 64.0184 10.3725L64.2463 11.9561C64.5771 11.9086 64.9459 11.8836 65.3548 11.8836V10.2836ZM64.0184 10.3725C63.6337 10.4278 63.0844 10.5167 62.3743 10.6382L62.6441 12.2153C63.3502 12.0945 63.8829 12.0084 64.2463 11.9561L64.0184 10.3725ZM61.7092 11.4267V19.9854H63.3092V11.4267H61.7092ZM62.5092 19.1854H61.0664V20.7854H62.5092V19.1854ZM61.8664 19.9854V10.7202H60.2664V19.9854H61.8664ZM76.3912 9.62365L72.1028 20.6853L73.5947 21.2636L77.883 10.202L76.3912 9.62365ZM72.1021 20.6872C71.7101 21.7061 71.2926 22.3025 70.9052 22.6034L71.8867 23.8671C72.6081 23.3067 73.1591 22.3959 73.5954 21.2617L72.1021 20.6872ZM70.9052 22.6034C70.4591 22.9499 70.0627 23.0812 69.7026 23.0812V24.6812C70.4915 24.6812 71.2239 24.3818 71.8867 23.8671L70.9052 22.6034ZM69.7026 23.0812C69.4854 23.0812 69.2709 23.0407 69.0541 22.9552L68.4674 24.4438C68.8652 24.6006 69.2785 24.6812 69.7026 24.6812V23.0812ZM69.5608 23.6995V22.3673H67.9608V23.6995H69.5608ZM68.4305 23.0959C68.8064 23.2663 69.2068 23.3489 69.6225 23.3489V21.7489C69.4236 21.7489 69.2496 21.7105 69.0911 21.6386L68.4305 23.0959ZM69.6225 23.3489C70.4191 23.3489 71.112 23.0448 71.5994 22.4107L70.3308 21.4357C70.1769 21.6359 69.9747 21.7489 69.6225 21.7489V23.3489ZM71.5994 22.4107C71.9998 21.8897 72.3344 21.1593 72.6263 20.2771L71.1073 19.7744C70.8382 20.5878 70.5716 21.1223 70.3308 21.4357L71.5994 22.4107ZM72.607 19.7222L68.4589 9.60922L66.9786 10.2164L71.1267 20.3293L72.607 19.7222ZM67.7188 10.7128H69.362V9.11282H67.7188V10.7128ZM68.6155 10.2005L71.7816 18.416L73.2746 17.8406L70.1084 9.62513L68.6155 10.2005ZM73.2746 18.416L76.4408 10.2005L74.9478 9.62513L71.7816 17.8406L73.2746 18.416ZM75.6943 10.7128H77.1371V9.11282H75.6943V10.7128ZM83.33 10.5311C84.6655 10.5311 85.5036 10.9559 86.0245 11.6884L87.3285 10.7613C86.4332 9.50215 85.0404 8.93113 83.33 8.93113V10.5311ZM86.0245 11.6884C86.604 12.5035 86.9235 13.6442 86.8986 15.1885L88.4984 15.2143C88.5269 13.4482 88.1651 11.9379 87.3285 10.7613L86.0245 11.6884ZM87.6985 14.4014H80.4043V16.0014H87.6985V14.4014ZM79.6043 15.2014C79.6043 16.526 79.9106 17.6697 80.6419 18.5116L81.8499 17.4624C81.459 17.0124 81.2043 16.2991 81.2043 15.2014H79.6043ZM80.6419 18.5116C81.3877 19.3701 82.4319 19.7559 83.6506 19.7559V18.1559C82.7852 18.1559 82.2263 17.8957 81.8499 17.4624L80.6419 18.5116ZM83.6506 19.7559C85.1036 19.7559 86.3966 19.4403 87.4939 18.7709L86.6606 17.405C85.8609 17.8929 84.8694 18.1559 83.6506 18.1559V19.7559ZM86.2772 18.0879V19.5817H87.8773V18.0879H86.2772ZM86.7293 18.8613C85.8869 19.2681 84.8428 19.4881 83.5704 19.4881V21.0881C85.0233 21.0881 86.3171 20.8372 87.4252 20.302L86.7293 18.8613ZM83.5704 19.4881C82.2936 19.4881 81.3931 19.0979 80.7593 18.3914L79.5683 19.4599C80.5643 20.57 81.9349 21.0881 83.5704 21.0881V19.4881ZM80.7593 18.3914C80.1233 17.6825 79.7414 16.5758 79.7414 14.939H78.1414C78.1414 16.801 78.5744 18.352 79.5683 19.4599L80.7593 18.3914ZM79.7414 14.939C79.7414 13.3359 80.1031 12.2601 80.6968 11.5789L79.4905 10.5277C78.5479 11.6093 78.1414 13.124 78.1414 14.939H79.7414ZM80.6968 11.5789C81.2842 10.9049 82.124 10.5311 83.33 10.5311V8.93113C81.7571 8.93113 80.4395 9.43883 79.4905 10.5277L80.6968 11.5789ZM83.3343 10.2631C82.3407 10.2631 81.4488 10.4936 80.7941 11.0852L81.8668 12.2723C82.1205 12.0431 82.5645 11.8631 83.3343 11.8631V10.2631ZM80.7941 11.0852C80.1221 11.6924 79.8016 12.6632 79.6739 13.7778L81.2636 13.9599C81.3763 12.9753 81.6303 12.486 81.8668 12.2723L80.7941 11.0852ZM80.4688 14.6689H86.1799V13.0689H80.4688V14.6689ZM86.9779 13.8123C86.9034 12.7624 86.601 11.8455 85.9561 11.1959L84.8206 12.3231C85.0975 12.602 85.3227 13.0914 85.3819 13.9255L86.9779 13.8123ZM85.9561 11.1959C85.2944 10.5294 84.3715 10.2631 83.3343 10.2631V11.8631C84.114 11.8631 84.5604 12.0611 84.8206 12.3231L85.9561 11.1959ZM90.7691 11.4332C91.9472 10.8337 93.2314 10.5311 94.6345 10.5311V8.93113C92.9916 8.93113 91.4571 9.2879 90.0434 10.0072L90.7691 11.4332ZM94.6345 10.5311C95.9476 10.5311 96.7031 10.8251 97.1057 11.2263L98.2351 10.093C97.3953 9.25615 96.1268 8.93113 94.6345 8.93113V10.5311ZM97.1057 11.2263C97.5248 11.644 97.8022 12.3275 97.8022 13.4251H99.4022C99.4022 12.0735 99.0584 10.9134 98.2351 10.093L97.1057 11.2263ZM97.8022 13.4251V19.9854H99.4022V13.4251H97.8022ZM98.6022 19.1854H97.1594V20.7854H98.6022V19.1854ZM97.9594 19.9854V13.4251H96.3594V19.9854H97.9594ZM97.9594 13.4251C97.9594 12.4813 97.689 11.6345 97.019 11.0402C96.3672 10.4621 95.4705 10.2432 94.4742 10.2432V11.8432C95.268 11.8432 95.7139 12.0213 95.9572 12.2371C96.1823 12.4368 96.3594 12.7809 96.3594 13.4251H97.9594ZM94.4742 10.2432C93.5591 10.2432 92.6082 10.3919 91.6248 10.679L92.0733 12.2148C92.9336 11.9637 93.7327 11.8432 94.4742 11.8432V10.2432ZM91.0491 11.4469V19.9854H92.6491V11.4469H91.0491ZM91.8491 19.1854H90.4062V20.7854H91.8491V19.1854ZM91.2062 19.9854V10.7202H89.6063V19.9854H91.2062ZM109.202 5.65343V18.2492H110.802V5.65343H109.202ZM109.202 18.2492C109.202 18.4091 109.157 18.5246 109.067 18.632C108.964 18.7538 108.77 18.9007 108.418 19.0381L109 20.5285C109.51 20.3294 109.962 20.0524 110.29 19.6629C110.631 19.2588 110.802 18.7755 110.802 18.2492H109.202ZM108.418 19.0381C107.658 19.3349 106.819 19.4879 105.894 19.4879V21.0879C106.999 21.0879 108.037 20.9045 109 20.5285L108.418 19.0381ZM105.894 19.4879C104.856 19.4879 103.976 19.1565 103.216 18.4867L102.158 19.687C103.215 20.6186 104.473 21.0879 105.894 21.0879V19.4879ZM103.216 18.4867C102.566 17.9135 102.118 16.7803 102.105 14.8124L100.505 14.8229C100.519 16.946 100.992 18.6588 102.158 19.687L103.216 18.4867ZM102.105 14.8176C102.105 13.3542 102.458 12.3207 103.064 11.6145L101.85 10.5723C100.92 11.6559 100.505 13.1052 100.505 14.8176H102.105ZM103.064 11.6145C103.64 10.9438 104.527 10.5511 105.874 10.5511V8.95108C104.201 8.95108 102.81 9.45329 101.85 10.5723L103.064 11.6145ZM105.874 10.5511C106.141 10.5511 106.509 10.5961 106.992 10.7036L107.34 9.14174C106.794 9.02046 106.301 8.95108 105.874 8.95108V10.5511ZM106.992 10.7036C107.474 10.8107 107.898 10.9376 108.268 11.0818L108.849 9.59112C108.391 9.41239 107.887 9.26341 107.34 9.14174L106.992 10.7036ZM109.359 10.3365V5.65343H107.759V10.3365H109.359ZM108.559 6.45343H110.002V4.85343H108.559V6.45343ZM108.956 11.0949C108.489 10.8284 107.984 10.6275 107.445 10.4897L107.049 12.0399C107.458 12.1444 107.828 12.2933 108.163 12.4844L108.956 11.0949ZM107.445 10.4897C106.913 10.3539 106.388 10.2831 105.874 10.2831V11.8831C106.241 11.8831 106.632 11.9336 107.049 12.0399L107.445 10.4897ZM105.874 10.2831C104.651 10.2831 103.611 10.6845 102.927 11.6056L104.212 12.5591C104.517 12.1479 105.013 11.8831 105.874 11.8831V10.2831ZM102.927 11.6056C102.297 12.4547 102.028 13.5547 102.028 14.8175H103.628C103.628 13.7656 103.853 13.0422 104.212 12.5591L102.927 11.6056ZM102.028 14.8175C102.028 16.1672 102.269 17.3348 102.826 18.2509L104.193 17.4195C103.842 16.8419 103.628 15.9976 103.628 14.8175H102.028ZM102.826 18.2509C103.475 19.319 104.618 19.7555 105.974 19.7555V18.1555C104.952 18.1555 104.452 17.8452 104.193 17.4195L102.826 18.2509ZM105.974 19.7555C106.739 19.7555 107.433 19.6687 108.04 19.4756L107.555 17.9509C107.147 18.0808 106.625 18.1555 105.974 18.1555V19.7555ZM108.04 19.4756C108.335 19.3819 108.63 19.2549 108.867 19.0669C109.115 18.8693 109.359 18.5492 109.359 18.1077H107.759C107.759 18.0211 107.784 17.9432 107.817 17.8848C107.847 17.832 107.875 17.8111 107.871 17.8146C107.866 17.8181 107.842 17.8359 107.786 17.8626C107.731 17.8888 107.656 17.9189 107.555 17.9509L108.04 19.4756ZM109.359 18.1077V11.7896H107.759V18.1077H109.359ZM116.034 19.4881C115.401 19.4881 114.896 19.4252 114.506 19.3159L114.075 20.8567C114.646 21.0166 115.304 21.0881 116.034 21.0881V19.4881ZM114.506 19.3159C114.09 19.1994 113.613 19.0073 113.074 18.7292L112.341 20.1515C112.95 20.4655 113.529 20.704 114.075 20.8567L114.506 19.3159ZM113.507 19.4404V17.9063H111.907V19.4404H113.507ZM112.309 18.6004C113.008 19.0003 113.612 19.2994 114.112 19.4773L114.649 17.9702C114.28 17.8386 113.769 17.5927 113.105 17.2121L112.309 18.6004ZM114.112 19.4773C114.654 19.6706 115.267 19.7559 115.933 19.7559V18.1559C115.397 18.1559 114.975 18.0865 114.649 17.9702L114.112 19.4773ZM115.933 19.7559C116.717 19.7559 117.436 19.5817 118.027 19.1661L117.106 17.8575C116.855 18.0341 116.485 18.1559 115.933 18.1559V19.7559ZM118.027 19.1661C118.638 18.7364 118.998 18.1196 118.998 17.3612H117.398C117.398 17.5449 117.337 17.6951 117.106 17.8575L118.027 19.1661ZM118.998 17.3612C118.998 16.7748 118.812 16.2046 118.325 15.8045L117.309 17.0407C117.33 17.0578 117.398 17.1133 117.398 17.3612H118.998ZM118.325 15.8045C117.974 15.5165 117.482 15.268 116.907 15.0422L116.322 16.5313C116.843 16.7362 117.152 16.9116 117.309 17.0407L118.325 15.8045ZM116.928 15.0508L116.407 14.8288L115.78 16.3007L116.301 16.5227L116.928 15.0508ZM116.311 14.7949C115.562 14.5829 115.005 14.3978 114.627 14.2406L114.013 15.7181C114.477 15.9108 115.103 16.1159 115.876 16.3346L116.311 14.7949ZM114.627 14.2406C114.335 14.119 114.07 13.9249 113.833 13.6397L112.603 14.6639C112.994 15.1322 113.464 15.4898 114.013 15.7181L114.627 14.2406ZM113.833 13.6397C113.672 13.4468 113.547 13.1364 113.547 12.6177H111.947C111.947 13.3908 112.136 14.1031 112.603 14.6639L113.833 13.6397ZM113.547 12.6177C113.547 12.1151 113.674 11.7587 113.88 11.4931L112.616 10.5125C112.154 11.1082 111.947 11.8283 111.947 12.6177H113.547ZM113.88 11.4931C114.121 11.1829 114.434 10.9481 114.842 10.7892L114.26 9.29877C113.598 9.55705 113.043 9.96153 112.616 10.5125L113.88 11.4931ZM114.842 10.7892C115.281 10.6178 115.743 10.5311 116.234 10.5311V8.93113C115.549 8.93113 114.889 9.05309 114.26 9.29877L114.842 10.7892ZM116.234 10.5311C116.713 10.5311 117.074 10.5861 117.336 10.6726L117.837 9.15302C117.365 8.99727 116.823 8.93113 116.234 8.93113V10.5311ZM117.336 10.6726C117.667 10.7816 118.144 10.9713 118.777 11.2504L119.422 9.7863C118.773 9.50019 118.241 9.2862 117.837 9.15302L117.336 10.6726ZM118.299 10.5184V11.9717H119.899V10.5184H118.299ZM119.459 11.2572C118.786 10.9179 118.245 10.6672 117.851 10.5174L117.282 12.013C117.596 12.1324 118.077 12.3527 118.74 12.6862L119.459 11.2572ZM117.851 10.5174C117.385 10.3404 116.867 10.2634 116.314 10.2634V11.8634C116.723 11.8634 117.04 11.9209 117.282 12.013L117.851 10.5174ZM116.314 10.2634C115.62 10.2634 114.975 10.4029 114.416 10.7212L115.207 12.112C115.475 11.9594 115.833 11.8634 116.314 11.8634V10.2634ZM114.416 10.7212C113.784 11.0805 113.39 11.6622 113.39 12.4158H114.99C114.99 12.3082 115.01 12.2237 115.207 12.112L114.416 10.7212ZM113.39 12.4158C113.39 12.9351 113.549 13.4266 113.915 13.8193L115.086 12.7281C115.038 12.6767 114.99 12.5963 114.99 12.4158H113.39ZM113.915 13.8193C114.21 14.1356 114.571 14.3729 114.98 14.5394L115.584 13.0576C115.365 12.9684 115.205 12.8558 115.086 12.7281L113.915 13.8193ZM114.98 14.5394C115.335 14.684 115.793 14.8315 116.341 14.9833L116.768 13.4413C116.247 13.2971 115.857 13.1687 115.584 13.0576L114.98 14.5394ZM116.309 14.9737C116.965 15.185 117.466 15.3702 117.823 15.5289L118.472 14.0665C118.041 13.8753 117.48 13.6702 116.8 13.4509L116.309 14.9737ZM117.823 15.5289C118.083 15.6442 118.329 15.8348 118.56 16.1289L119.819 15.1419C119.449 14.6689 119.001 14.3011 118.472 14.0665L117.823 15.5289ZM118.56 16.1289C118.719 16.3317 118.841 16.6543 118.841 17.1796H120.441C120.441 16.413 120.262 15.7061 119.819 15.1419L118.56 16.1289ZM118.841 17.1796C118.841 17.7259 118.705 18.1244 118.479 18.4262L119.76 19.3847C120.229 18.758 120.441 18.0059 120.441 17.1796H118.841ZM118.479 18.4262C118.221 18.771 117.888 19.0297 117.462 19.2055L118.072 20.6845C118.755 20.4028 119.323 19.9684 119.76 19.3847L118.479 18.4262ZM117.462 19.2055C117.004 19.3942 116.53 19.4881 116.034 19.4881V21.0881C116.739 21.0881 117.421 20.9533 118.072 20.6845L117.462 19.2055Z" fill="#DE5F28"/>
</svg>
