<svg width="106" height="106" viewBox="0 0 106 106" fill="none" xmlns="http://www.w3.org/2000/svg">
<path d="M52.9994 0C24.0273 0 0.433594 23.5823 0.433594 52.5962C0.433594 81.5492 24.0273 105.132 52.9994 105.132C81.9714 105.132 105.565 81.5492 105.565 52.5962C105.565 23.5823 81.9714 0 52.9994 0" fill="#E06732"/>
<path d="M73.1433 56.2933C72.991 56.4961 72.2807 57.3583 71.7226 57.9161L71.4181 58.2204C67.156 62.8355 56.5515 69.7834 51.1732 72.0148C51.1732 72.0655 47.9766 73.3841 46.4545 73.4348H46.2515C43.9175 73.4348 41.7357 72.1163 40.6195 69.9862C40.0106 68.8198 39.4525 65.4219 39.4017 65.3712C38.9451 62.3283 38.6406 57.6676 38.6406 52.5404C38.6406 47.1646 38.9451 42.296 39.5032 39.3039C39.5032 39.2531 40.0613 36.5145 40.4165 35.6017C40.9746 34.2831 41.9894 33.1674 43.2579 32.4574C44.2727 31.9502 45.3382 31.6967 46.4545 31.6967C47.6215 31.7474 49.8032 32.5132 50.6658 32.8631C56.3486 35.0945 67.2068 42.3975 71.3674 46.8603C72.0777 47.5703 72.8388 48.4325 73.0418 48.6354C73.9043 49.7511 74.361 51.1204 74.361 52.5962C74.361 53.9097 73.9551 55.2283 73.1433 56.2933" fill="white"/>
</svg>
