<svg width="396" height="350" viewBox="0 0 396 350" fill="none" xmlns="http://www.w3.org/2000/svg">
<path opacity="0.5" fill-rule="evenodd" clip-rule="evenodd" d="M51.361 0C61.2611 0 70.5071 2.82155 78.3495 7.70989C78.707 7.93274 79.103 8.19325 79.5376 8.49142L79.9851 8.80218C82.3119 10.4364 82.883 13.6612 81.2607 16.005L81.1298 16.1856C79.9292 17.7696 78.992 19.103 78.3182 20.1859C72.627 29.3314 69.3373 40.1469 69.3373 51.7364C69.3373 63.3198 72.6235 74.13 78.308 83.2728C78.8869 84.2039 79.6602 85.32 80.6278 86.621L81.1277 87.2869C82.8486 89.5583 82.4157 92.8049 80.1608 94.5383L79.9832 94.6689C79.3345 95.1247 78.7601 95.5078 78.2598 95.8182C70.4376 100.672 61.224 103.473 51.361 103.473C22.9951 103.473 0 80.3096 0 51.7364C0 23.1632 22.9951 0 51.361 0Z" fill="#DE5F28"/>
<path fill-rule="evenodd" clip-rule="evenodd" d="M128.4 103.473C156.766 103.473 179.761 80.3096 179.761 51.7364C179.761 23.1632 156.766 0 128.4 0C100.034 0 77.0391 23.1632 77.0391 51.7364C77.0391 80.3096 100.034 103.473 128.4 103.473Z" fill="#DE5F28"/>
<rect x="211.398" y="195.874" width="46.974" height="46.974" rx="23.487" transform="rotate(16.4268 211.398 195.874)" fill="#0A66C2"/>
<path d="M241.499 215.767L220.376 209.539C219.891 209.396 219.369 209.452 218.925 209.694C218.48 209.936 218.151 210.344 218.008 210.829L211.78 231.952C211.637 232.437 211.693 232.959 211.935 233.403C212.176 233.847 212.585 234.177 213.07 234.32L234.193 240.548C234.678 240.691 235.2 240.635 235.644 240.393C236.088 240.152 236.418 239.743 236.561 239.258L242.789 218.135C242.932 217.65 242.876 217.128 242.634 216.684C242.392 216.24 241.984 215.91 241.499 215.767ZM219.709 232.288L215.983 231.19L219.473 219.355L223.198 220.453L219.709 232.288ZM221.816 218.263C221.394 218.136 221.02 217.887 220.739 217.547C220.459 217.208 220.285 216.792 220.24 216.354C220.196 215.916 220.282 215.474 220.488 215.084C220.694 214.695 221.011 214.375 221.399 214.166C221.786 213.956 222.227 213.866 222.666 213.907C223.105 213.948 223.522 214.118 223.864 214.396C224.206 214.673 224.458 215.046 224.589 215.467C224.72 215.888 224.723 216.338 224.598 216.76C224.518 217.044 224.382 217.31 224.198 217.54C224.014 217.771 223.786 217.962 223.526 218.102C223.266 218.242 222.981 218.329 222.688 218.356C222.394 218.384 222.098 218.353 221.816 218.263ZM233.439 236.347L229.715 235.249L231.621 228.784C232.183 226.877 231.546 226.049 230.5 225.741C229.395 225.415 228.065 225.929 227.561 227.639L225.669 234.056L221.943 232.958L225.433 221.122L229.016 222.178L228.532 223.818L228.581 223.832C229.155 223.21 230.781 222.337 232.704 222.904C234.782 223.517 236.664 225.413 235.599 229.027L233.439 236.347Z" fill="white"/>
<rect x="223.352" y="266.601" width="82.7032" height="82.7032" rx="41.3516" transform="rotate(-4.41935 223.352 266.601)" fill="#1877F2"/>
<path d="M284.736 315.321L285.642 303.262L274.208 304.146L273.61 296.415C273.358 293.154 274.707 289.85 279.828 289.454L285.03 289.052L284.246 278.906C284.246 278.906 279.465 278.466 274.956 278.814C265.534 279.542 259.824 285.727 260.622 296.058L261.324 305.142L250.856 305.951L251.777 317.868L262.245 317.059L264.472 345.871C266.599 346.039 268.762 346.042 270.952 345.872C273.143 345.703 275.28 345.368 277.356 344.875L275.129 316.063L284.736 315.321Z" fill="white"/>
<rect x="263.73" y="190.688" width="70.6643" height="70.6643" rx="35.3322" transform="rotate(-14.3617 263.73 190.688)" fill="#1D9BF0"/>
<path d="M305.08 235.811C320.26 231.924 325.34 217.22 322.549 206.319C322.457 205.959 322.365 205.6 322.26 205.262C323.571 203.686 324.601 201.872 325.289 199.927C323.983 200.955 322.506 201.807 320.881 202.442C322.33 200.977 323.218 199.035 323.339 196.943C321.989 198.292 320.401 199.428 318.615 200.287C316.697 199.064 314.304 198.619 311.925 199.228C307.373 200.393 304.623 205.036 305.788 209.589C305.955 210.239 306.185 210.855 306.493 211.414C299.542 212.829 292.626 211.099 287.273 207.145C286.882 208.539 286.835 210.065 287.221 211.571C287.953 214.429 290.056 216.589 292.658 217.492C291.297 217.804 289.934 217.751 288.664 217.42C288.673 217.454 288.681 217.488 288.69 217.523C289.715 221.527 293.406 224.12 297.386 223.922C296.749 224.285 296.04 224.576 295.287 224.769C294.756 224.905 294.23 224.985 293.69 225.014C295.575 228.033 299.231 229.631 302.859 228.775C300.601 231.706 297.378 233.935 293.511 234.926C292.843 235.096 292.184 235.229 291.512 235.31C295.728 236.747 300.425 237.003 305.08 235.811Z" fill="white"/>
<rect x="326.824" y="258.86" width="58.1641" height="58.1641" rx="29.0821" transform="rotate(-11.1526 326.824 258.86)" fill="url(#paint0_linear_19243_32830)"/>
<path d="M358.219 267.733C362.793 266.831 363.334 266.746 365.158 266.471C366.845 266.216 367.804 266.316 368.456 266.435C369.32 266.59 369.963 266.844 370.679 267.324C371.395 267.805 371.881 268.302 372.345 269.044C372.696 269.603 373.16 270.451 373.564 272.108C374.002 273.9 374.128 274.433 375.03 279.007C375.932 283.582 376.017 284.123 376.292 285.947C376.547 287.634 376.447 288.593 376.328 289.245C376.173 290.108 375.919 290.752 375.439 291.468C374.959 292.184 374.461 292.67 373.72 293.134C373.16 293.485 372.312 293.948 370.655 294.353C368.863 294.791 368.33 294.917 363.756 295.819C359.181 296.721 358.64 296.806 356.816 297.081C355.129 297.336 354.17 297.235 353.518 297.117C352.655 296.962 352.011 296.708 351.295 296.228C350.579 295.747 350.093 295.25 349.629 294.508C349.278 293.949 348.815 293.101 348.41 291.444C347.972 289.652 347.846 289.119 346.944 284.544C346.042 279.97 345.957 279.429 345.682 277.605C345.427 275.918 345.528 274.959 345.646 274.307C345.801 273.444 346.055 272.8 346.536 272.084C347.016 271.368 347.513 270.882 348.255 270.418C348.814 270.067 349.662 269.604 351.319 269.199C353.11 268.754 353.651 268.634 358.219 267.733ZM357.61 264.647C352.961 265.564 352.38 265.699 350.568 266.141C348.763 266.582 347.576 267.12 346.572 267.755C345.529 268.413 344.694 269.192 343.93 270.331C343.166 271.47 342.771 272.544 342.55 273.753C342.343 274.923 342.296 276.225 342.575 278.069C342.852 279.907 342.947 280.495 343.864 285.145C344.78 289.794 344.916 290.374 345.358 292.187C345.799 293.992 346.336 295.179 346.973 296.19C347.631 297.232 348.41 298.067 349.549 298.831C350.688 299.595 351.762 299.991 352.971 300.212C354.141 300.419 355.443 300.466 357.287 300.187C359.132 299.908 359.713 299.815 364.369 298.897C369.026 297.979 369.599 297.844 371.412 297.402C373.217 296.962 374.403 296.424 375.415 295.787C376.457 295.13 377.292 294.351 378.056 293.211C378.82 292.072 379.216 290.999 379.437 289.79C379.644 288.619 379.691 287.318 379.412 285.473C379.133 283.629 379.039 283.047 378.121 278.391C377.203 273.735 377.069 273.161 376.627 271.349C376.186 269.543 375.649 268.357 375.012 267.346C374.354 266.303 373.575 265.468 372.436 264.704C371.297 263.94 370.223 263.545 369.015 263.324C367.844 263.117 366.543 263.07 364.698 263.349C362.848 263.636 362.26 263.731 357.61 264.647Z" fill="white"/>
<path d="M359.256 272.981C354.403 273.937 351.237 278.65 352.195 283.51C353.153 288.37 357.864 291.53 362.724 290.572C367.584 289.613 370.744 284.902 369.786 280.042C368.828 275.182 364.116 272.022 359.256 272.981ZM362.115 287.479C358.961 288.101 355.901 286.049 355.279 282.895C354.658 279.741 356.71 276.681 359.863 276.06C363.017 275.438 366.077 277.49 366.699 280.644C367.32 283.798 365.269 286.857 362.115 287.479Z" fill="white"/>
<path d="M368.733 272.878C369.867 272.654 370.605 271.554 370.381 270.42C370.158 269.286 369.058 268.549 367.924 268.772C366.79 268.996 366.052 270.096 366.276 271.229C366.499 272.363 367.6 273.101 368.733 272.878Z" fill="white"/>
<path d="M186 54H204C269.722 54 323 107.278 323 173V173" stroke="#D9D9D9" stroke-width="8" stroke-linecap="round" stroke-linejoin="round"/>
<path d="M283.793 68.5936C283.514 66.6808 281.737 65.3566 279.824 65.6358C277.912 65.915 276.587 67.6919 276.867 69.6046L278.286 79.3287L268.632 80.7378C266.72 81.0169 265.395 82.7938 265.675 84.7066C265.954 86.6193 267.731 87.9435 269.643 87.6644L279.297 86.2553L280.687 95.7803C280.966 97.693 282.743 99.0172 284.656 98.7381C286.569 98.4589 287.893 96.682 287.614 94.7693L286.223 85.2443L295.819 83.8438C297.732 83.5646 299.056 81.7877 298.777 79.875C298.498 77.9622 296.721 76.638 294.808 76.9172L285.212 78.3177L283.793 68.5936L281.814 68.8824L283.793 68.5936Z" fill="white" stroke="white" stroke-width="4" stroke-linecap="round" stroke-linejoin="round"/>
<path d="M282.309 68.8102C282.149 67.7172 281.134 66.9605 280.041 67.12C278.948 67.2796 278.191 68.2949 278.351 69.3879L279.987 80.5964L268.849 82.222C267.756 82.3816 266.999 83.3969 267.159 84.4899C267.318 85.5829 268.334 86.3396 269.427 86.1801L280.564 84.5544L282.171 95.5636C282.331 96.6566 283.346 97.4133 284.439 97.2538C285.532 97.0943 286.289 96.0789 286.129 94.9859L284.523 83.9767L295.602 82.3595C296.695 82.2 297.452 81.1846 297.293 80.0916C297.133 78.9986 296.118 78.2419 295.025 78.4014L283.945 80.0187L282.309 68.8102Z" fill="#DF4741" stroke="#DF4741" stroke-linecap="round" stroke-linejoin="round"/>
<defs>
<linearGradient id="paint0_linear_19243_32830" x1="313.136" y1="328.295" x2="397.807" y2="251.098" gradientUnits="userSpaceOnUse">
<stop stop-color="#FFD521"/>
<stop offset="0.209768" stop-color="#FFD521"/>
<stop offset="0.501119" stop-color="#F50000"/>
<stop offset="0.736496" stop-color="#B900B4"/>
<stop offset="0.950079" stop-color="#B900B4"/>
<stop offset="1" stop-color="#B900B4"/>
</linearGradient>
</defs>
</svg>
