<svg width="34" height="34" viewBox="0 0 34 34" fill="none" xmlns="http://www.w3.org/2000/svg">
<path fill-rule="evenodd" clip-rule="evenodd" d="M22.8923 11.6633C22.8923 14.992 20.2386 17.6611 16.9291 17.6611C13.6196 17.6611 10.9659 14.992 10.9659 11.6633C10.9659 8.33329 13.6196 5.66675 16.9291 5.66675C20.2386 5.66675 22.8923 8.33329 22.8923 11.6633ZM16.9291 28.3334C12.0683 28.3334 7.91776 27.5628 7.91776 24.4803C7.91776 21.3966 12.0416 20.5979 16.9291 20.5979C21.7899 20.5979 25.9404 21.3685 25.9404 24.4522C25.9404 27.5347 21.8166 28.3334 16.9291 28.3334ZM25.4405 11.7715C25.4405 13.4684 24.9344 15.0492 24.0464 16.3633C23.9551 16.4985 24.0363 16.681 24.1974 16.7091C24.4194 16.7473 24.649 16.769 24.8824 16.7754C27.2101 16.8366 29.2993 15.3299 29.8764 13.0614C30.7314 9.69183 28.221 6.66677 25.0245 6.66677C24.6769 6.66677 24.3445 6.70377 24.0211 6.77011C23.9767 6.78032 23.9297 6.80073 23.9044 6.84028C23.8739 6.88877 23.8968 6.95383 23.9272 6.99594C24.8875 8.34963 25.4405 10.0006 25.4405 11.7715ZM29.2955 19.1429C30.8595 19.4504 31.8882 20.0781 32.3144 20.9903C32.6747 21.7393 32.6747 22.6081 32.3144 23.3558C31.6624 24.7707 29.5606 25.2249 28.7437 25.3423C28.5749 25.3678 28.4392 25.2211 28.457 25.0514C28.8743 21.1307 25.5547 19.2717 24.6959 18.8443C24.6591 18.8252 24.6515 18.7959 24.6553 18.778C24.6579 18.7652 24.6731 18.7448 24.701 18.741C26.5593 18.7065 28.5572 18.9617 29.2955 19.1429ZM9.12054 16.7753C9.35394 16.7689 9.58227 16.7485 9.80552 16.7089C9.96662 16.6809 10.0478 16.4984 9.95647 16.3632C9.06853 15.049 8.56241 13.4682 8.56241 11.7714C8.56241 10.0005 9.11547 8.3495 10.0757 6.99581C10.1062 6.95371 10.1277 6.88864 10.0985 6.84016C10.0732 6.80188 10.025 6.78019 9.98184 6.76998C9.65711 6.70364 9.32477 6.66664 8.9772 6.66664C5.78061 6.66664 3.27028 9.6917 4.12651 13.0612C4.70367 15.3297 6.79287 16.8365 9.12054 16.7753ZM9.34696 18.7772C9.35077 18.7964 9.34316 18.8244 9.30764 18.8448C8.44761 19.2723 5.12798 21.1312 5.54531 25.0506C5.56307 25.2216 5.42861 25.367 5.2599 25.3428C4.44299 25.2254 2.34111 24.7712 1.68911 23.3563C1.32759 22.6074 1.32759 21.7398 1.68911 20.9908C2.11532 20.0786 3.14279 19.4509 4.70684 19.1421C5.44637 18.9622 7.44297 18.7071 9.30257 18.7415C9.33047 18.7453 9.34443 18.7657 9.34696 18.7772Z" fill="#DF4741"/>
</svg>
