<svg width="30" height="30" viewBox="0 0 30 30" fill="none" xmlns="http://www.w3.org/2000/svg">
<path fill-rule="evenodd" clip-rule="evenodd" d="M0.832031 15.0213C0.832031 7.55846 6.7962 0.833374 15.027 0.833374C23.0737 0.833374 29.1654 7.43077 29.1654 14.9788C29.1654 23.7327 22.0254 29.1667 14.9987 29.1667C12.6754 29.1667 10.097 28.5424 8.0287 27.3223C7.3062 26.8825 6.69703 26.5561 5.91786 26.8115L3.0562 27.6628C2.3337 27.8898 1.68203 27.3223 1.89453 26.5561L2.8437 23.378C2.99953 22.9382 2.9712 22.47 2.74453 22.1011C1.5262 19.8594 0.832031 17.4049 0.832031 15.0213ZM13.157 15.0213C13.157 16.0287 13.9645 16.8374 14.9704 16.8516C15.9762 16.8516 16.7837 16.0287 16.7837 15.0355C16.7837 14.0282 15.9762 13.2195 14.9704 13.2195C13.9787 13.2053 13.157 14.0282 13.157 15.0213ZM19.6879 15.0355C19.6879 16.0287 20.4954 16.8516 21.5012 16.8516C22.507 16.8516 23.3145 16.0287 23.3145 15.0355C23.3145 14.0282 22.507 13.2195 21.5012 13.2195C20.4954 13.2195 19.6879 14.0282 19.6879 15.0355ZM8.43953 16.8516C7.44786 16.8516 6.6262 16.0287 6.6262 15.0355C6.6262 14.0282 7.4337 13.2195 8.43953 13.2195C9.44536 13.2195 10.2529 14.0282 10.2529 15.0355C10.2529 16.0287 9.44536 16.8374 8.43953 16.8516Z" fill="#1792C8"/>
</svg>
