<svg width="18" height="19" viewBox="0 0 18 19" fill="none" xmlns="http://www.w3.org/2000/svg">
<path d="M15.335 15.9459H12.67V11.7689C12.67 10.7729 12.65 9.49093 11.28 9.49093C9.891 9.49093 9.679 10.5749 9.679 11.6959V15.9459H7.013V7.35693H9.573V8.52693H9.608C9.966 7.85293 10.836 7.13993 12.136 7.13993C14.836 7.13993 15.336 8.91793 15.336 11.2309V15.9459H15.335ZM4.003 6.18193C3.79956 6.1822 3.59806 6.1423 3.41006 6.06454C3.22207 5.98678 3.05127 5.87267 2.90746 5.72877C2.76365 5.58487 2.64965 5.41399 2.57201 5.22595C2.49437 5.0379 2.4546 4.83638 2.455 4.63293C2.4552 4.32677 2.54618 4.02754 2.71644 3.77308C2.8867 3.51862 3.12859 3.32037 3.41153 3.20339C3.69447 3.0864 4.00574 3.05595 4.30598 3.11587C4.60622 3.1758 4.88196 3.32341 5.09831 3.54004C5.31466 3.75667 5.46191 4.03259 5.52145 4.33291C5.58099 4.63324 5.55013 4.94447 5.43278 5.22725C5.31543 5.51004 5.11687 5.75167 4.86219 5.9216C4.60751 6.09154 4.30817 6.18213 4.002 6.18193H4.003ZM5.339 15.9459H2.666V7.35693H5.34V15.9459H5.339ZM16.67 0.606934H1.329C0.593 0.606934 0 1.18693 0 1.90393V17.3099C0 18.0269 0.594 18.6069 1.328 18.6069H16.666C17.4 18.6069 18 18.0269 18 17.3099V1.90393C18 1.18693 17.4 0.606934 16.666 0.606934H16.669H16.67Z" fill="black" fill-opacity="0.5"/>
</svg>
