<svg width="190" height="38" viewBox="0 0 190 38" fill="none" xmlns="http://www.w3.org/2000/svg">
<path opacity="0.5" fill-rule="evenodd" clip-rule="evenodd" d="M18.5609 0C22.1386 0 25.4799 1.01965 28.314 2.78621C28.4432 2.86674 28.5863 2.96088 28.7434 3.06864L28.9051 3.18094C29.7459 3.7715 29.9523 4.93689 29.3661 5.78391L29.3188 5.84918C28.8849 6.4216 28.5462 6.90347 28.3027 7.29479C26.246 10.5998 25.0572 14.5083 25.0572 18.6965C25.0572 22.8826 26.2447 26.7892 28.299 30.0932C28.5082 30.4297 28.7877 30.833 29.1373 31.3032L29.318 31.5438C29.9399 32.3647 29.7835 33.5379 28.9686 34.1643L28.9044 34.2115C28.67 34.3762 28.4624 34.5147 28.2816 34.6269C25.4548 36.3811 22.1252 37.3931 18.5609 37.3931C8.30999 37.3931 0 29.0224 0 18.6965C0 8.37073 8.30999 0 18.5609 0Z" fill="#DE5F28"/>
<path fill-rule="evenodd" clip-rule="evenodd" d="M46.4007 37.3931C56.6516 37.3931 64.9616 29.0224 64.9616 18.6965C64.9616 8.37073 56.6516 0 46.4007 0C36.1498 0 27.8398 8.37073 27.8398 18.6965C27.8398 29.0224 36.1498 37.3931 46.4007 37.3931Z" fill="#DE5F28"/>
<path fill-rule="evenodd" clip-rule="evenodd" d="M88.4009 17.2969H85.75V15.2476H88.4009V14.4093C88.4009 12.6912 88.6989 11.4129 89.2948 10.5746C89.8908 9.73623 90.533 9.21874 91.2214 9.02209C91.9098 8.82544 92.6239 8.72711 93.3637 8.72711C93.9186 8.72711 94.4117 8.78921 94.8433 8.91341V10.9006C94.4323 10.8178 94.0624 10.7764 93.7336 10.7764C93.076 10.7764 92.5417 10.8385 92.1307 10.9627C91.7197 11.0869 91.3652 11.4078 91.0673 11.9253C90.7693 12.4428 90.6203 13.2604 90.6203 14.3782V15.2476H94.8433V17.2969H90.6203V30.7416H88.4009V17.2969ZM98.5428 16.4902C99.3237 16.159 100.356 15.8226 101.641 15.4811C102.925 15.1395 104.256 14.9688 105.633 14.9688C105.838 14.9688 106.167 15.0308 106.619 15.155V17.1423C106.126 17.0801 105.633 17.0491 105.139 17.0491C104.461 17.0491 103.834 17.0905 103.259 17.1733C102.684 17.2561 101.851 17.3906 100.762 17.577V30.7422H98.5428V16.4902ZM123.261 15.248L116.665 32.2634C116.028 33.9195 115.283 35.0786 114.43 35.741C113.577 36.4034 112.709 36.7346 111.825 36.7346C111.332 36.7346 110.849 36.6415 110.376 36.4552V34.4059C110.787 34.5922 111.229 34.6853 111.702 34.6853C112.585 34.6853 113.274 34.3645 113.767 33.7228C114.26 33.0811 114.723 32.1082 115.154 30.8041L108.773 15.248H111.301L116.171 27.8854L121.042 15.248H123.261ZM132.79 14.9688C135.132 14.9688 136.848 15.7346 137.937 17.2664C139.027 18.7983 139.551 20.8372 139.509 23.3833H128.289C128.289 25.2463 128.721 26.6746 129.584 27.6682C130.447 28.6618 131.68 29.1586 133.283 29.1586C135.338 29.1586 137.095 28.7136 138.554 27.8234V30.1211C137.054 30.8456 135.256 31.2079 133.16 31.2079C130.92 31.2079 129.173 30.5093 127.919 29.112C126.666 27.7148 126.039 25.6707 126.039 22.9796C126.039 20.3507 126.63 18.3584 127.811 17.0025C128.993 15.6467 130.652 14.9688 132.79 14.9688ZM132.791 17.0176C131.434 17.0176 130.407 17.3333 129.708 17.9646C129.01 18.596 128.568 19.7189 128.383 21.3335H137.168C137.065 19.8845 136.659 18.803 135.95 18.0888C135.241 17.3746 134.188 17.0176 132.791 17.0176ZM143.672 16.4902C145.665 15.4759 147.833 14.9688 150.176 14.9688C152.334 14.9688 153.89 15.4448 154.846 16.397C155.801 17.3493 156.279 18.7672 156.279 20.6509V30.7422H154.06V20.6509C154.06 18.2083 152.683 16.987 149.929 16.987C148.655 16.987 147.309 17.194 145.891 17.608V30.7422H143.672V16.4902ZM173.815 8.69629V28.0715C173.815 29.1272 173.153 29.9138 171.827 30.4313C170.502 30.9488 169.058 31.2075 167.496 31.2075C165.606 31.2075 163.962 30.5917 162.564 29.3601C161.167 28.1284 160.458 25.9394 160.438 22.793C160.438 20.3504 161.028 18.4408 162.21 17.0643C163.392 15.6877 165.143 14.9994 167.466 14.9994C168 14.9994 168.663 15.0874 169.454 15.2634C170.245 15.4393 170.959 15.6515 171.596 15.8999V8.69629H173.815ZM171.597 18.1352C170.98 17.7833 170.308 17.5142 169.578 17.3279C168.848 17.1416 168.145 17.0485 167.466 17.0485C165.864 17.0485 164.682 17.5608 163.922 18.5854C163.161 19.6101 162.781 21.0125 162.781 22.7927C162.781 24.7385 163.131 26.2858 163.829 27.4347C164.528 28.5835 165.792 29.158 167.621 29.158C168.71 29.158 169.645 29.0338 170.426 28.7854C171.207 28.537 171.597 28.2265 171.597 27.8539V18.1352ZM183.093 31.2079C182.045 31.2079 181.152 31.1044 180.412 30.8974C179.672 30.6904 178.86 30.3592 177.977 29.9038V27.544C179.025 28.1443 179.883 28.5635 180.55 28.8015C181.218 29.0396 182.015 29.1586 182.939 29.1586C183.967 29.1586 184.804 28.9309 185.452 28.4755C186.099 28.0201 186.423 27.4302 186.423 26.7056C186.423 26.0639 186.227 25.5827 185.837 25.2618C185.446 24.941 184.83 24.615 183.987 24.2837L183.186 23.9422C182.015 23.611 181.105 23.3108 180.458 23.0417C179.811 22.7726 179.246 22.3483 178.763 21.7687C178.28 21.1891 178.038 20.4025 178.038 19.4089C178.038 18.4153 178.295 17.5873 178.809 16.9249C179.323 16.2625 179.99 15.7709 180.812 15.45C181.634 15.1292 182.498 14.9688 183.402 14.9688C184.224 14.9688 184.917 15.0619 185.482 15.2482C186.047 15.4345 186.823 15.745 187.81 16.1797V18.4153C186.782 17.8978 185.996 17.5356 185.452 17.3285C184.907 17.1215 184.265 17.018 183.525 17.018C182.621 17.018 181.85 17.1992 181.213 17.5614C180.576 17.9237 180.258 18.436 180.258 19.0984C180.258 19.6366 180.417 20.0765 180.735 20.418C181.054 20.7596 181.455 21.0287 181.938 21.2253C182.42 21.422 183.073 21.6341 183.895 21.8618C184.922 22.1931 185.739 22.4932 186.345 22.7623C186.952 23.0314 187.486 23.4609 187.948 24.0509C188.411 24.6408 188.642 25.4326 188.642 26.4262C188.642 27.4819 188.375 28.3668 187.84 29.081C187.306 29.7951 186.613 30.3281 185.76 30.68C184.907 31.0319 184.018 31.2079 183.093 31.2079Z" fill="#DE5F28"/>
<path d="M88.4009 17.2969H89.1509V16.5469H88.4009V17.2969ZM85.75 17.2969H85V18.0469H85.75V17.2969ZM85.75 15.2476V14.4976H85V15.2476H85.75ZM88.4009 15.2476V15.9976H89.1509V15.2476H88.4009ZM94.8433 8.91341H95.5933V8.34882L95.0507 8.19267L94.8433 8.91341ZM94.8433 10.9006L94.6952 11.6358L95.5933 11.8168V10.9006H94.8433ZM90.6203 15.2476H89.8703V15.9976H90.6203V15.2476ZM94.8433 15.2476H95.5933V14.4976H94.8433V15.2476ZM94.8433 17.2969V18.0469H95.5933V17.2969H94.8433ZM90.6203 17.2969V16.5469H89.8703V17.2969H90.6203ZM90.6203 30.7416V31.4916H91.3703V30.7416H90.6203ZM88.4009 30.7416H87.6509V31.4916H88.4009V30.7416ZM98.5428 16.4902L98.25 15.7997L97.7928 15.9936V16.4902H98.5428ZM106.619 15.155H107.369V14.5833L106.818 14.4318L106.619 15.155ZM106.619 17.1423L106.525 17.8864L107.369 17.9926V17.1423H106.619ZM100.762 17.577L100.636 16.8377L100.012 16.9443V17.577H100.762ZM100.762 30.7422V31.4922H101.512V30.7422H100.762ZM98.5428 30.7422H97.7928V31.4922H98.5428V30.7422ZM123.261 15.248L123.96 15.5191L124.356 14.498H123.261V15.248ZM116.665 32.2634L115.965 31.9923L115.965 31.9942L116.665 32.2634ZM110.376 36.4552H109.626V36.9657L110.101 37.1529L110.376 36.4552ZM110.376 34.4059L110.686 33.7228L109.626 33.2425V34.4059H110.376ZM115.154 30.8041L115.866 31.0397L115.953 30.7762L115.848 30.5195L115.154 30.8041ZM108.773 15.248V14.498H107.655L108.08 15.5327L108.773 15.248ZM111.301 15.248L112.001 14.9783L111.816 14.498H111.301V15.248ZM116.171 27.8854L115.472 28.1551L116.171 29.971L116.871 28.1551L116.171 27.8854ZM121.042 15.248V14.498H120.527L120.342 14.9783L121.042 15.248ZM139.509 23.3833V24.1333H140.247L140.259 23.3954L139.509 23.3833ZM128.289 23.3833V22.6333H127.539V23.3833H128.289ZM138.554 27.8234H139.304V26.4874L138.163 27.1832L138.554 27.8234ZM138.554 30.1211L138.88 30.7965L139.304 30.5918V30.1211H138.554ZM128.383 21.3335L127.638 21.2482L127.542 22.0835H128.383V21.3335ZM137.168 21.3335V22.0835H137.973L137.916 21.2805L137.168 21.3335ZM143.672 16.4902L143.332 15.8218L142.922 16.0303V16.4902H143.672ZM156.279 30.7422V31.4922H157.029V30.7422H156.279ZM154.06 30.7422H153.31V31.4922H154.06V30.7422ZM145.891 17.608L145.681 16.8881L145.141 17.0457V17.608H145.891ZM145.891 30.7422V31.4922H146.641V30.7422H145.891ZM143.672 30.7422H142.922V31.4922H143.672V30.7422ZM173.815 8.69629H174.565V7.94629H173.815V8.69629ZM160.438 22.793H159.688L159.688 22.7979L160.438 22.793ZM171.596 15.8999L171.324 16.5986L172.346 16.9973V15.8999H171.596ZM171.596 8.69629V7.94629H170.846V8.69629H171.596ZM171.597 18.1352H172.347V17.6997L171.969 17.4839L171.597 18.1352ZM177.977 29.9038H177.227V30.361L177.633 30.5705L177.977 29.9038ZM177.977 27.544L178.349 26.8932L177.227 26.2501V27.544H177.977ZM183.987 24.2837L183.693 24.9737L183.703 24.9779L183.713 24.9818L183.987 24.2837ZM183.186 23.9422L183.48 23.2522L183.436 23.2335L183.39 23.2205L183.186 23.9422ZM187.81 16.1797H188.56V15.6906L188.112 15.4934L187.81 16.1797ZM187.81 18.4153L187.472 19.0851L188.56 19.6328V18.4153H187.81ZM183.895 21.8618L184.125 21.148L184.11 21.1432L184.095 21.1391L183.895 21.8618ZM88.4009 16.5469H85.75V18.0469H88.4009V16.5469ZM86.5 17.2969V15.2476H85V17.2969H86.5ZM85.75 15.9976H88.4009V14.4976H85.75V15.9976ZM89.1509 15.2476V14.4093H87.6509V15.2476H89.1509ZM89.1509 14.4093C89.1509 12.7525 89.4429 11.6608 89.9061 11.0091L88.6836 10.14C87.9549 11.1651 87.6509 12.6298 87.6509 14.4093H89.1509ZM89.9061 11.0091C90.4454 10.2505 90.9609 9.8765 91.4274 9.74324L91.0154 8.30093C90.1051 8.56097 89.3362 9.22194 88.6836 10.14L89.9061 11.0091ZM91.4274 9.74324C92.0466 9.56636 92.6912 9.47711 93.3637 9.47711V7.97711C92.5566 7.97711 91.773 8.08451 91.0154 8.30093L91.4274 9.74324ZM93.3637 9.47711C93.8642 9.47711 94.2854 9.53329 94.6359 9.63416L95.0507 8.19267C94.5381 8.04513 93.9729 7.97711 93.3637 7.97711V9.47711ZM94.0933 8.91341V10.9006H95.5933V8.91341H94.0933ZM94.9914 10.1654C94.5442 10.0753 94.1235 10.0264 93.7336 10.0264V11.5264C94.0013 11.5264 94.3203 11.5603 94.6952 11.6358L94.9914 10.1654ZM93.7336 10.0264C93.0372 10.0264 92.422 10.0912 91.9138 10.2448L92.3477 11.6806C92.6614 11.5858 93.1149 11.5264 93.7336 11.5264V10.0264ZM91.9138 10.2448C91.2588 10.4427 90.773 10.9332 90.4173 11.551L91.7172 12.2995C91.9574 11.8823 92.1807 11.7311 92.3477 11.6806L91.9138 10.2448ZM90.4173 11.551C90.0183 12.2439 89.8703 13.2255 89.8703 14.3782H91.3703C91.3703 13.2953 91.5202 12.6416 91.7172 12.2995L90.4173 11.551ZM89.8703 14.3782V15.2476H91.3703V14.3782H89.8703ZM90.6203 15.9976H94.8433V14.4976H90.6203V15.9976ZM94.0933 15.2476V17.2969H95.5933V15.2476H94.0933ZM94.8433 16.5469H90.6203V18.0469H94.8433V16.5469ZM89.8703 17.2969V30.7416H91.3703V17.2969H89.8703ZM90.6203 29.9916H88.4009V31.4916H90.6203V29.9916ZM89.1509 30.7416V17.2969H87.6509V30.7416H89.1509ZM98.8357 17.1807C99.5713 16.8687 100.566 16.5428 101.833 16.2059L101.448 14.7563C100.146 15.1024 99.0762 15.4493 98.25 15.7997L98.8357 17.1807ZM101.833 16.2059C103.053 15.8816 104.318 15.7188 105.633 15.7188V14.2188C104.193 14.2188 102.797 14.3974 101.448 14.7563L101.833 16.2059ZM105.633 15.7188C105.728 15.7188 105.972 15.755 106.42 15.8783L106.818 14.4318C106.362 14.3067 105.948 14.2188 105.633 14.2188V15.7188ZM105.869 15.155V17.1423H107.369V15.155H105.869ZM106.713 16.3981C106.189 16.3321 105.664 16.2991 105.139 16.2991V17.7991C105.601 17.7991 106.063 17.8282 106.525 17.8864L106.713 16.3981ZM105.139 16.2991C104.431 16.2991 103.768 16.3423 103.152 16.4309L103.366 17.9157C103.901 17.8387 104.491 17.7991 105.139 17.7991V16.2991ZM103.152 16.4309C102.567 16.5152 101.727 16.6511 100.636 16.8377L100.889 18.3162C101.976 18.1302 102.8 17.997 103.366 17.9157L103.152 16.4309ZM100.012 17.577V30.7422H101.512V17.577H100.012ZM100.762 29.9922H98.5428V31.4922H100.762V29.9922ZM99.2928 30.7422V16.4902H97.7928V30.7422H99.2928ZM122.562 14.9769L115.965 31.9923L117.364 32.5345L123.96 15.5191L122.562 14.9769ZM115.965 31.9942C115.348 33.5961 114.666 34.608 113.97 35.1487L114.89 36.3334C115.899 35.5493 116.707 34.2428 117.365 32.5327L115.965 31.9942ZM113.97 35.1487C113.218 35.7322 112.508 35.9846 111.825 35.9846V37.4846C112.91 37.4846 113.935 37.0747 114.89 36.3334L113.97 35.1487ZM111.825 35.9846C111.429 35.9846 111.039 35.9103 110.651 35.7574L110.101 37.1529C110.659 37.3727 111.235 37.4846 111.825 37.4846V35.9846ZM111.126 36.4552V34.4059H109.626V36.4552H111.126ZM110.067 35.089C110.58 35.3215 111.128 35.4353 111.702 35.4353V33.9353C111.331 33.9353 110.995 33.8629 110.686 33.7228L110.067 35.089ZM111.702 35.4353C112.794 35.4353 113.712 35.0249 114.362 34.1798L113.172 33.2658C112.836 33.7041 112.377 33.9353 111.702 33.9353V35.4353ZM114.362 34.1798C114.93 33.4408 115.424 32.3761 115.866 31.0397L114.442 30.5685C114.021 31.8403 113.591 32.7214 113.172 33.2658L114.362 34.1798ZM115.848 30.5195L109.467 14.9634L108.08 15.5327L114.46 31.0887L115.848 30.5195ZM108.773 15.998H111.301V14.498H108.773V15.998ZM110.601 15.5178L115.472 28.1551L116.871 27.6157L112.001 14.9783L110.601 15.5178ZM116.871 28.1551L121.742 15.5178L120.342 14.9783L115.472 27.6157L116.871 28.1551ZM121.042 15.998H123.261V14.498H121.042V15.998ZM132.79 15.7188C134.957 15.7188 136.413 16.4161 137.326 17.7011L138.549 16.8318C137.284 15.0532 135.308 14.2188 132.79 14.2188V15.7188ZM137.326 17.7011C138.295 19.0634 138.799 20.9291 138.76 23.3712L140.259 23.3954C140.302 20.7453 139.758 18.5331 138.549 16.8318L137.326 17.7011ZM139.509 22.6333H128.289V24.1333H139.509V22.6333ZM127.539 23.3833C127.539 25.3527 127.995 26.9827 129.018 28.16L130.15 27.1764C129.447 26.3665 129.039 25.1399 129.039 23.3833H127.539ZM129.018 28.16C130.054 29.3529 131.514 29.9086 133.283 29.9086V28.4086C131.846 28.4086 130.84 27.9707 130.15 27.1764L129.018 28.16ZM133.283 29.9086C135.448 29.9086 137.346 29.4389 138.944 28.4637L138.163 27.1832C136.844 27.9882 135.228 28.4086 133.283 28.4086V29.9086ZM137.804 27.8234V30.1211H139.304V27.8234H137.804ZM138.228 29.4458C136.852 30.1102 135.171 30.4579 133.16 30.4579V31.9579C135.34 31.9579 137.255 31.5811 138.88 30.7965L138.228 29.4458ZM133.16 30.4579C131.088 30.4579 129.561 29.8192 128.478 28.6112L127.361 29.6129C128.784 31.1993 130.752 31.9579 133.16 31.9579V30.4579ZM128.478 28.6112C127.392 27.4009 126.789 25.5651 126.789 22.9796H125.289C125.289 25.7762 125.94 28.0286 127.361 29.6129L128.478 28.6112ZM126.789 22.9796C126.789 20.45 127.359 18.6634 128.377 17.4953L127.246 16.5098C125.901 18.0533 125.289 20.2514 125.289 22.9796H126.789ZM128.377 17.4953C129.389 16.3339 130.824 15.7188 132.79 15.7188V14.2188C130.481 14.2188 128.597 14.9595 127.246 16.5098L128.377 17.4953ZM132.791 16.2676C131.33 16.2676 130.092 16.6069 129.205 17.4081L130.211 18.5211C130.722 18.0596 131.539 17.7676 132.791 17.7676V16.2676ZM129.205 17.4081C128.303 18.224 127.83 19.5726 127.638 21.2482L129.128 21.4189C129.306 19.8652 129.717 18.9679 130.211 18.5211L129.205 17.4081ZM128.383 22.0835H137.168V20.5835H128.383V22.0835ZM137.916 21.2805C137.806 19.7303 137.364 18.4483 136.483 17.5604L135.418 18.6172C135.954 19.1576 136.324 20.0387 136.42 21.3866L137.916 21.2805ZM136.483 17.5604C135.585 16.6567 134.309 16.2676 132.791 16.2676V17.7676C134.067 17.7676 134.897 18.0926 135.418 18.6172L136.483 17.5604ZM144.012 17.1586C145.895 16.2005 147.946 15.7188 150.176 15.7188V14.2188C147.721 14.2188 145.435 14.7513 143.332 15.8218L144.012 17.1586ZM150.176 15.7188C152.25 15.7188 153.566 16.1803 154.316 16.9283L155.375 15.8658C154.215 14.7094 152.418 14.2188 150.176 14.2188V15.7188ZM154.316 16.9283C155.083 17.6917 155.529 18.8862 155.529 20.6509H157.029C157.029 18.6481 156.52 17.0068 155.375 15.8658L154.316 16.9283ZM155.529 20.6509V30.7422H157.029V20.6509H155.529ZM156.279 29.9922H154.06V31.4922H156.279V29.9922ZM154.81 30.7422V20.6509H153.31V30.7422H154.81ZM154.81 20.6509C154.81 19.2891 154.422 18.1376 153.525 17.3419C152.645 16.5614 151.401 16.237 149.929 16.237V17.737C151.211 17.737 152.033 18.0232 152.529 18.464C153.009 18.8897 153.31 19.5701 153.31 20.6509H154.81ZM149.929 16.237C148.574 16.237 147.157 16.4572 145.681 16.8881L146.101 18.3279C147.462 17.9308 148.737 17.737 149.929 17.737V16.237ZM145.141 17.608V30.7422H146.641V17.608H145.141ZM145.891 29.9922H143.672V31.4922H145.891V29.9922ZM144.422 30.7422V16.4902H142.922V30.7422H144.422ZM173.065 8.69629V28.0715H174.565V8.69629H173.065ZM173.065 28.0715C173.065 28.4276 172.959 28.7158 172.745 28.97C172.519 29.2378 172.143 29.5029 171.555 29.7326L172.1 31.1299C172.837 30.8422 173.455 30.4552 173.892 29.9365C174.341 29.4041 174.565 28.7711 174.565 28.0715H173.065ZM171.555 29.7326C170.324 30.213 168.974 30.4575 167.496 30.4575V31.9575C169.142 31.9575 170.68 31.6845 172.1 31.1299L171.555 29.7326ZM167.496 30.4575C165.785 30.4575 164.319 29.9064 163.06 28.7974L162.069 29.9227C163.605 31.2771 165.426 31.9575 167.496 31.9575V30.4575ZM163.06 28.7974C161.905 27.779 161.208 25.8617 161.188 22.7881L159.688 22.7979C159.709 26.0171 160.429 28.4778 162.069 29.9227L163.06 28.7974ZM161.188 22.793C161.188 20.4671 161.749 18.7524 162.779 17.5528L161.641 16.5758C160.307 18.1292 159.688 20.2337 159.688 22.793H161.188ZM162.779 17.5528C163.78 16.3864 165.296 15.7494 167.466 15.7494V14.2494C164.991 14.2494 163.003 14.9891 161.641 16.5758L162.779 17.5528ZM167.466 15.7494C167.925 15.7494 168.529 15.826 169.291 15.9955L169.617 14.5312C168.796 14.3488 168.075 14.2494 167.466 14.2494V15.7494ZM169.291 15.9955C170.051 16.1646 170.728 16.3664 171.324 16.5986L171.869 15.2011C171.19 14.9366 170.438 14.714 169.617 14.5312L169.291 15.9955ZM172.346 15.8999V8.69629H170.846V15.8999H172.346ZM171.596 9.44629H173.815V7.94629H171.596V9.44629ZM171.969 17.4839C171.29 17.0966 170.554 16.8032 169.764 16.6012L169.392 18.0546C170.061 18.2253 170.671 18.47 171.225 18.7866L171.969 17.4839ZM169.764 16.6012C168.98 16.4011 168.214 16.2985 167.466 16.2985V17.7985C168.076 17.7985 168.717 17.8821 169.392 18.0546L169.764 16.6012ZM167.466 16.2985C165.694 16.2985 164.257 16.8748 163.319 18.1385L164.524 19.0324C165.107 18.2467 166.034 17.7985 167.466 17.7985V16.2985ZM163.319 18.1385C162.432 19.3347 162.031 20.9136 162.031 22.7927H163.531C163.531 21.1114 163.891 19.8855 164.524 19.0324L163.319 18.1385ZM162.031 22.7927C162.031 24.818 162.393 26.5169 163.188 27.8244L164.47 27.045C163.868 26.0548 163.531 24.659 163.531 22.7927H162.031ZM163.188 27.8244C164.07 29.2744 165.635 29.908 167.621 29.908V28.408C165.948 28.408 164.986 27.8927 164.47 27.045L163.188 27.8244ZM167.621 29.908C168.763 29.908 169.779 29.7781 170.653 29.5001L170.198 28.0706C169.511 28.2894 168.656 28.408 167.621 28.408V29.908ZM170.653 29.5001C171.082 29.3637 171.473 29.1901 171.771 28.9532C172.08 28.7073 172.347 28.3406 172.347 27.8539H170.847C170.847 27.7398 170.919 27.7145 170.837 27.7792C170.745 27.8528 170.55 27.9586 170.198 28.0706L170.653 29.5001ZM172.347 27.8539V18.1352H170.847V27.8539H172.347ZM183.093 30.4579C182.091 30.4579 181.269 30.3584 180.614 30.1751L180.21 31.6197C181.034 31.8504 182 31.9579 183.093 31.9579V30.4579ZM180.614 30.1751C179.935 29.9851 179.171 29.6757 178.32 29.2371L177.633 30.5705C178.549 31.0427 179.409 31.3957 180.21 31.6197L180.614 30.1751ZM178.727 29.9038V27.544H177.227V29.9038H178.727ZM177.604 28.1948C178.668 28.8041 179.57 29.2482 180.299 29.508L180.802 28.0951C180.195 27.8787 179.382 27.4845 178.349 26.8932L177.604 28.1948ZM180.299 29.508C181.068 29.7821 181.953 29.9086 182.939 29.9086V28.4086C182.076 28.4086 181.369 28.297 180.802 28.0951L180.299 29.508ZM182.939 29.9086C184.075 29.9086 185.076 29.6564 185.883 29.0889L185.02 27.8621C184.532 28.2054 183.858 28.4086 182.939 28.4086V29.9086ZM185.883 29.0889C186.708 28.5082 187.173 27.6995 187.173 26.7056H185.673C185.673 27.1608 185.489 27.532 185.02 27.8621L185.883 29.0889ZM187.173 26.7056C187.173 25.9053 186.922 25.1827 186.313 24.6824L185.361 25.8413C185.533 25.9826 185.673 26.2226 185.673 26.7056H187.173ZM186.313 24.6824C185.832 24.287 185.129 23.9267 184.262 23.5857L183.713 24.9818C184.531 25.3032 185.061 25.5949 185.361 25.8413L186.313 24.6824ZM184.281 23.5938L183.48 23.2522L182.892 24.6322L183.693 24.9737L184.281 23.5938ZM183.39 23.2205C182.23 22.8924 181.353 22.6016 180.746 22.3492L180.17 23.7343C180.857 24.0201 181.799 24.3296 182.982 24.6639L183.39 23.2205ZM180.746 22.3492C180.219 22.1301 179.75 21.7824 179.339 21.2886L178.186 22.2488C178.741 22.9142 179.402 23.4152 180.17 23.7343L180.746 22.3492ZM179.339 21.2886C179 20.8814 178.788 20.2833 178.788 19.4089H177.288C177.288 20.5217 177.56 21.4967 178.186 22.2488L179.339 21.2886ZM178.788 19.4089C178.788 18.5498 179.008 17.8922 179.401 17.3845L178.216 16.4653C177.582 17.2824 177.288 18.2808 177.288 19.4089H178.788ZM179.401 17.3845C179.828 16.835 180.383 16.423 181.085 16.1487L180.54 14.7514C179.598 15.1188 178.817 15.69 178.216 16.4653L179.401 17.3845ZM181.085 16.1487C181.818 15.8626 182.588 15.7188 183.402 15.7188V14.2188C182.407 14.2188 181.451 14.3957 180.54 14.7514L181.085 16.1487ZM183.402 15.7188C184.172 15.7188 184.781 15.8067 185.248 15.9605L185.717 14.5359C185.054 14.3171 184.275 14.2188 183.402 14.2188V15.7188ZM185.248 15.9605C185.778 16.1355 186.528 16.4346 187.507 16.866L188.112 15.4934C187.118 15.0554 186.317 14.7335 185.717 14.5359L185.248 15.9605ZM187.06 16.1797V18.4153H188.56V16.1797H187.06ZM188.147 17.7455C187.114 17.2252 186.3 16.8487 185.718 16.6275L185.185 18.0296C185.692 18.2224 186.45 18.5704 187.472 19.0851L188.147 17.7455ZM185.718 16.6275C185.069 16.3807 184.332 16.268 183.525 16.268V17.768C184.197 17.768 184.745 17.8624 185.185 18.0296L185.718 16.6275ZM183.525 16.268C182.521 16.268 181.616 16.4695 180.842 16.9095L181.584 18.2134C182.084 17.9288 182.721 17.768 183.525 17.768V16.268ZM180.842 16.9095C180.001 17.3878 179.508 18.1332 179.508 19.0984H181.008C181.008 18.7388 181.151 18.4595 181.584 18.2134L180.842 16.9095ZM179.508 19.0984C179.508 19.7954 179.719 20.428 180.187 20.9295L181.284 19.9065C181.115 19.7249 181.008 19.4778 181.008 19.0984H179.508ZM180.187 20.9295C180.588 21.3595 181.083 21.6871 181.655 21.9199L182.22 20.5307C181.826 20.3703 181.52 20.1596 181.284 19.9065L180.187 20.9295ZM181.655 21.9199C182.176 22.1322 182.86 22.3534 183.695 22.5846L184.095 21.1391C183.286 20.9149 182.665 20.7117 182.22 20.5307L181.655 21.9199ZM183.665 22.5757C184.681 22.9031 185.469 23.194 186.041 23.4478L186.65 22.0768C186.009 21.7924 185.164 21.483 184.125 21.148L183.665 22.5757ZM186.041 23.4478C186.521 23.661 186.961 24.0074 187.358 24.5135L188.539 23.5882C188.011 22.9144 187.382 22.4018 186.65 22.0768L186.041 23.4478ZM187.358 24.5135C187.688 24.9341 187.892 25.5457 187.892 26.4262H189.392C189.392 25.3195 189.134 24.3476 188.539 23.5882L187.358 24.5135ZM187.892 26.4262C187.892 27.3506 187.66 28.0698 187.24 28.6317L188.441 29.5303C189.089 28.6638 189.392 27.6132 189.392 26.4262H187.892ZM187.24 28.6317C186.789 29.2338 186.206 29.6845 185.474 29.9867L186.046 31.3733C187.019 30.9718 187.823 30.3564 188.441 29.5303L187.24 28.6317ZM185.474 29.9867C184.712 30.3011 183.92 30.4579 183.093 30.4579V31.9579C184.116 31.9579 185.102 31.7628 186.046 31.3733L185.474 29.9867Z" fill="#DE5F28"/>
</svg>
