<svg width="22" height="17" viewBox="0 0 22 17" fill="none" xmlns="http://www.w3.org/2000/svg">
<path d="M21.1603 2.26286C20.3969 2.60055 19.5873 2.82233 18.7583 2.92086C19.6321 2.39829 20.2861 1.57587 20.5983 0.60686C19.7783 1.09486 18.8793 1.43686 17.9423 1.62186C17.313 0.948439 16.4787 0.501823 15.5693 0.351445C14.6599 0.201067 13.7263 0.355351 12.9136 0.790313C12.1009 1.22528 11.4547 1.91654 11.0755 2.75665C10.6962 3.59676 10.6051 4.53864 10.8163 5.43586C9.15345 5.35251 7.52668 4.92038 6.04163 4.16752C4.55659 3.41466 3.24647 2.35791 2.19634 1.06586C1.82463 1.70431 1.6293 2.43009 1.63034 3.16886C1.63034 4.61886 2.36834 5.89986 3.49034 6.64986C2.82635 6.62896 2.17698 6.44964 1.59634 6.12686V6.17886C1.59654 7.14456 1.93071 8.08048 2.54219 8.82792C3.15367 9.57536 4.00483 10.0883 4.95134 10.2799C4.33496 10.4469 3.68865 10.4715 3.06134 10.3519C3.32821 11.1831 3.84835 11.9101 4.54894 12.431C5.24952 12.9519 6.09547 13.2407 6.96834 13.2569C6.10082 13.9382 5.10752 14.4418 4.04522 14.739C2.98293 15.0362 1.87247 15.1211 0.777344 14.9889C2.68904 16.2183 4.91444 16.871 7.18734 16.8689C14.8803 16.8689 19.0873 10.4959 19.0873 4.96886C19.0873 4.78886 19.0823 4.60686 19.0743 4.42886C19.8932 3.83703 20.5999 3.10388 21.1613 2.26386L21.1603 2.26286Z" fill="black" fill-opacity="0.5"/>
</svg>
