<svg width="20" height="17" viewBox="0 0 20 17" fill="none" xmlns="http://www.w3.org/2000/svg">
<path d="M19.543 3.10493C20 4.88693 20 8.60693 20 8.60693C20 8.60693 20 12.3269 19.543 14.1089C19.289 15.0939 18.546 15.8689 17.605 16.1309C15.896 16.6069 10 16.6069 10 16.6069C10 16.6069 4.107 16.6069 2.395 16.1309C1.45 15.8649 0.708 15.0909 0.457 14.1089C2.98023e-08 12.3269 0 8.60693 0 8.60693C0 8.60693 2.98023e-08 4.88693 0.457 3.10493C0.711 2.11993 1.454 1.34493 2.395 1.08293C4.107 0.606933 10 0.606934 10 0.606934C10 0.606934 15.896 0.606933 17.605 1.08293C18.55 1.34893 19.292 2.12293 19.543 3.10493ZM8 12.1069L14 8.60693L8 5.10693V12.1069Z" fill="black" fill-opacity="0.5"/>
</svg>
